<svg width="81" height="73" viewBox="0 0 81 73" fill="none" xmlns="http://www.w3.org/2000/svg">
<path d="M49.1864 45.6553V48.4206C48.6194 48.1175 48.1082 47.6146 47.627 47.2125C48.4048 46.6301 48.5944 46.1956 49.1864 45.6553Z" fill="#9B74E6"/>
<path d="M39.415 20.667C39.9944 20.6947 40.5478 20.8328 41.1407 20.8257C41.6384 20.8198 42.1208 20.6857 42.6175 20.667V22.8302C41.5563 22.832 40.4742 22.875 39.415 22.8302C39.4522 22.1152 39.4166 21.3839 39.415 20.667Z" fill="#191223"/>
<path d="M19.7532 30.2231C20.6147 30.3746 21.159 30.3691 22.0159 30.2231C22.0197 30.7625 22.0735 31.3442 22.0159 31.8798C22.7786 31.8809 23.5491 31.9037 24.3108 31.8798V33.864C23.8323 33.935 23.2616 33.8682 22.7717 33.8653L19.4129 33.8639C19.0333 33.8644 17.8557 33.9466 17.5918 33.864C17.666 33.4558 17.5946 32.3699 17.5918 31.8798H19.7532V30.2231Z" fill="#452D89"/>
<path d="M54.0467 10.446C55.2207 10.4041 55.4428 11.1585 55.4442 12.0603C55.9622 12.0512 56.5862 11.9735 56.9866 12.3342C57.4311 12.7346 57.4313 13.4722 56.9709 13.8641C56.5819 14.1951 55.9353 14.1018 55.4442 14.0791C55.4352 14.8661 55.4139 15.3793 54.4885 15.6639C53.3382 15.6849 53.0976 14.9877 53.1587 14.0791C52.6869 14.0864 52.0785 14.1606 51.6817 13.8884C51.2068 13.5626 51.0378 12.8449 51.452 12.4222C51.8442 12.0218 52.6187 12.0905 53.1587 12.0603C53.1666 11.2657 53.1286 10.7775 54.0467 10.446Z" fill="#9B74E6"/>
<path d="M59.0667 30.1235C59.85 30.3432 60.5888 30.2202 61.3789 30.1235V31.8798C62.121 31.8764 62.9261 31.8148 63.6605 31.8798C63.6606 32.5124 63.6149 33.1689 63.6605 33.7982C63.3322 33.9972 56.8285 33.8783 56.688 33.7982C56.7413 33.1731 56.6894 32.5094 56.688 31.8798H59.0667V30.1235Z" fill="#452D89"/>
<path d="M28.161 8.92558C29.4877 8.84377 29.4744 9.74562 29.4656 10.6737C29.9957 10.6654 30.8029 10.5711 31.2313 10.8943C31.7151 11.2592 31.6686 11.9551 31.2465 12.3432C30.8214 12.7341 30.018 12.6197 29.4656 12.6148C29.4776 13.3279 29.5874 14.0579 28.7076 14.3626C27.34 14.5473 27.2645 13.5738 27.2604 12.6148C26.7103 12.5457 25.9286 12.656 25.5304 12.2432C24.4578 11.1315 25.8362 10.4799 27.2604 10.6737C27.2384 9.85365 27.121 9.1748 28.161 8.92558Z" fill="#9B74E6"/>
<path d="M45.4434 42.256L45.4401 39.073C45.4395 38.574 45.3713 37.9905 45.4706 37.5021C45.617 36.7826 46.526 36.3686 47.1408 36.9261C47.6811 37.4161 47.5361 38.4167 47.5301 39.0472V42.256C48.0818 42.2779 48.6344 42.2542 49.1864 42.256C49.1876 43.381 49.2485 44.5339 49.1864 45.6553C48.5944 46.1956 48.4048 46.6301 47.627 47.2125C47.3878 47.2287 45.128 49.1158 44.7486 49.3862C44.0718 47.8299 43.8165 44.089 44.0149 42.256C44.492 42.2365 44.9666 42.2618 45.4434 42.256Z" fill="#452D89"/>
<path d="M59.2936 20.0923C62.2027 21.5959 61.9449 22.3387 62.8988 24.7363C63.2625 25.6506 63.7632 26.2671 63.7352 27.267C63.6763 29.3666 62.1093 29.3199 61.3787 30.1234C60.5887 30.22 59.8499 30.3431 59.0666 30.1234C59.0155 30.0859 59.0395 30.0978 58.9775 30.0755C57.8092 29.6543 56.8747 29.0024 56.5721 27.8293C55.8571 25.0583 60.66 25.5805 59.2936 20.0923Z" fill="#F47421"/>
<path d="M60.8566 24.5469C60.9602 24.6534 61.0205 25.5425 61.12 25.7802C61.4117 26.478 62.0917 27.1171 61.9525 27.9082C61.7789 28.8945 60.6984 29.3724 59.6778 29.2039C59.0978 29.0002 58.584 28.6533 58.465 28.0611C58.2769 27.1254 60.1252 25.5468 60.8566 24.5469Z" fill="#FECC0C"/>
<path d="M20.0911 20.2754C21.8533 21.2478 23.2034 22.6332 23.4713 24.5466C25.7304 26.5159 24.6708 29.0996 22.016 30.2231C21.159 30.3691 20.6148 30.3745 19.7532 30.2231C18.5607 29.7876 17.2303 29.0074 16.9886 27.7803C16.4896 25.2455 21.2661 25.8264 20.0911 20.2754Z" fill="#F47421"/>
<path d="M21.4108 24.5469C22.762 25.7079 23.3439 29.1402 20.3034 29.2039C17.6082 27.919 20.376 25.8654 21.4108 24.5469Z" fill="#FECC0C"/>
<path d="M32.6288 34.7567L32.6255 31.778C32.6244 31.0882 32.3685 29.3772 33.5964 29.4056C34.8981 29.4356 34.65 31.1364 34.6484 31.8929C34.6465 32.847 34.6337 33.8027 34.6459 34.7567H36.6527C36.6543 36.064 36.6905 37.379 36.6527 38.6853L36.6462 47.1228C36.6419 47.4462 36.5976 47.8015 36.6527 48.1209C36.6511 48.7 36.6838 49.2926 36.6527 49.8703C35.635 49.0679 34.6456 48.27 33.7525 47.3525C33.0563 47.9438 32.2822 48.4723 31.531 49.0057C31.3094 49.1722 31.0893 49.3611 30.8533 49.5094V34.7567C31.2493 34.7526 32.311 34.8383 32.6288 34.7567Z" fill="#452D89"/>
<path d="M31.531 49.0059C31.3045 48.6369 31.419 46.6277 31.4777 46.1735C31.8153 43.5599 34.0552 40.0366 36.6527 38.6855L36.6462 47.123C36.6419 47.4464 36.5977 47.8017 36.6527 48.1211C36.6511 48.7002 36.6839 49.2928 36.6527 49.8705C35.635 49.0681 34.6456 48.2702 33.7525 47.3527C33.0563 47.944 32.2822 48.4725 31.531 49.0059Z" fill="#9B74E6"/>
<path d="M40.4343 6.16797C43.5208 7.65165 44.426 10.8983 44.4158 13.8105C44.9655 14.2845 45.5026 14.7834 45.8277 15.4126C47.0924 17.8614 44.8872 19.7353 42.6176 20.6673C42.1209 20.686 41.6385 20.8202 41.1408 20.826C40.5479 20.8332 39.9945 20.695 39.4151 20.6673C39.3382 20.5851 38.2825 20.2018 38.0073 20.0219C36.3154 18.9168 35.3803 17.0062 35.8345 15.152C36.6456 11.8413 41.3354 11.2727 40.4343 6.16797Z" fill="#F47421"/>
<path d="M41.3947 11.7183C41.6524 11.9823 41.876 12.9716 42.0848 13.3696C42.753 14.6435 44.103 15.4983 43.8499 17.0608C43.6156 18.5065 42.1373 19.5019 40.5303 19.2786C39.0082 18.9979 37.9824 17.5503 37.9895 16.2065C37.9998 14.232 39.9883 12.9868 41.3947 11.7183Z" fill="#FECC0C"/>
<path d="M54.4885 46.8667C50.3496 43.7082 50.8574 37.6748 54.9599 34.703C55.3105 34.449 56.2365 33.7554 56.688 33.7983C56.8285 33.8784 63.3322 33.9973 63.6605 33.7983C64.3536 33.7833 65.6613 34.8085 66.1821 35.2579C72.1267 40.3885 67.2398 49.6362 59.0667 48.6458C57.3138 48.4374 55.8748 47.8417 54.4885 46.8667Z" fill="#F47421"/>
<path d="M55.4442 37.9625C56.1317 37.9215 58.1116 39.9685 58.5236 40.4863C58.1388 40.7603 57.7775 41.0341 57.3337 41.227C54.8382 42.0642 53.178 39.1991 55.4442 37.9625Z" fill="#191223"/>
<path d="M64.7347 37.9624C66.5545 38.0189 66.4826 41.8842 63.3191 41.33C62.7611 41.1509 62.2979 40.8455 61.8652 40.4862C62.3758 39.8377 63.8831 38.2577 64.7347 37.9624Z" fill="#191223"/>
<path d="M63.4864 43.0244C64.1217 43.088 64.7566 43.0397 65.3938 43.0244C65.2143 43.4124 64.9961 43.7604 64.7348 44.1083C63.8072 45.2325 62.5636 45.8409 61.0752 46.1899C60.6917 45.1407 59.4055 45.188 59.0667 46.1899C57.1399 45.8104 55.3233 44.778 54.6487 43.0244H56.5642C56.645 44.6537 58.3228 44.8397 58.6522 43.4107C59.5591 43.4296 60.4714 43.4112 61.3788 43.4107C62.1494 45.118 63.4856 44.4428 63.4864 43.0244Z" fill="#191223"/>
<path d="M17.5918 33.8639C17.8557 33.9465 19.0334 33.8643 19.4129 33.8638L22.7717 33.8652C23.2617 33.868 23.8323 33.9349 24.3109 33.8639C28.3474 34.9993 30.3884 39.7413 29.1313 43.2859C29.0014 43.6518 28.8285 44.0091 28.7076 44.3762C28.3751 44.7597 28.1511 45.2091 27.8127 45.589C26.4134 47.1596 24.2555 48.3845 22.016 48.6456C19.1458 48.5314 17.3759 48.5401 14.943 46.6439C11.4025 43.8844 11.1764 38.9502 14.231 35.8185C14.9198 35.1125 16.505 33.9231 17.5918 33.8639Z" fill="#F47421"/>
<path d="M25.1256 37.5146C27.5002 39.087 26.6928 42.0204 23.7192 41.3298C23.1061 41.2001 22.5739 40.9178 22.1658 40.486C23.1594 39.4052 24.0538 38.8932 25.1256 37.5146Z" fill="#191223"/>
<path d="M16.3323 37.5146C16.6517 37.7125 17.232 38.5994 17.5441 38.9235C18.0865 39.4866 18.7652 39.9249 19.3004 40.486C18.9355 40.9847 18.1939 41.179 17.5918 41.3298C14.4729 41.9963 13.8589 38.9781 16.3323 37.5146Z" fill="#191223"/>
<path d="M24.3108 43.2329C25.0056 43.1087 25.6955 42.988 26.379 42.8179C26.2687 43.2025 26.1162 43.5426 25.9151 43.8963C25.0081 45.2542 23.5005 45.9875 21.7694 46.1901C21.4995 45.0817 20.2619 44.9804 19.8604 46.1901C17.998 45.7842 15.5301 44.7538 15.2021 42.8179C15.9301 42.967 16.6572 43.1089 17.3913 43.2329C17.5501 44.7227 18.8351 44.6874 19.3003 43.4109C19.9906 43.3786 21.8129 43.3495 22.4622 43.4109C22.9339 44.7425 24.2822 44.6268 24.3108 43.2329Z" fill="#191223"/>
<path d="M39.4151 22.8302C40.4743 22.8749 41.5564 22.832 42.6176 22.8302L45.4012 22.8293C48.2095 22.8235 49.695 22.8558 49.7148 25.7559C49.7206 26.6323 49.9105 27.8374 49.1604 28.5096C48.8806 28.7606 47.9313 29.1176 47.8921 29.1747C47.3678 29.938 48.3493 34.0255 47.44 34.8111C46.9199 35.2603 45.9945 35.2953 45.5092 34.7821C44.4409 33.652 46.4275 32.5447 43.8238 33.0911L43.7804 33.0761C43.1204 32.8404 43.0468 31.535 42.3442 31.7714C41.819 31.948 42.0671 33.7444 42.0672 34.1651L42.0701 38.4567C44.4801 38.4711 45.5064 40.5175 44.0149 42.2557C43.8165 44.0887 44.0718 47.8295 44.7486 49.3859C43.985 50.0111 42.177 51.5997 41.6151 49.9604C42.1811 49.7121 43.0399 49.4245 42.5871 48.7202C41.8661 47.5987 41.1501 49.7687 41.0332 49.065C40.8802 48.1438 40.0256 48.4081 40.1039 49.2827C39.6532 49.0306 39.1159 48.306 38.8059 48.4058C37.9892 48.6685 38.2705 49.6351 39.4151 49.8702C39.2583 50.1635 39.075 50.428 38.8676 50.6942C38.1539 50.5133 37.2616 50.2541 36.6527 49.8702C36.6839 49.2925 36.6511 48.7 36.6527 48.1208C37.9141 46.5525 38.4217 45.5143 38.3885 43.5516C38.3575 41.7178 37.5499 41.8536 37.4537 40.7169C37.3363 39.3277 38.7165 38.5473 40.1039 38.4567C40.0579 37.8516 40.1022 37.2303 40.1033 36.6229L40.1068 32.9035C40.1072 31.9805 40.5388 29.8104 38.9414 29.9913C37.6882 30.1334 38.1884 31.4179 37.6097 32.0641C37.1454 32.5824 36.1612 32.6574 35.6067 32.2111C34.5918 31.3947 35.5159 29.2535 34.9851 28.6168C34.5114 28.0488 32.472 29.8242 32.4705 25.7171C32.4695 23.224 33.6187 22.817 36.1655 22.8253C37.2457 22.8289 38.3362 22.8662 39.4151 22.8302Z" fill="#F47421"/>
<path d="M22.0159 48.6458C24.2554 48.3848 26.4133 47.1599 27.8126 45.5892C28.151 45.2094 28.375 44.76 28.7075 44.3765L28.7072 48.9351C28.7066 49.6097 28.6846 50.2905 28.7075 50.9643C29.4367 50.4972 30.0838 49.9252 30.8533 49.5097C31.0893 49.3614 31.3094 49.1725 31.531 49.006C32.2821 48.4726 33.0562 47.9441 33.7525 47.3528C34.6455 48.2703 35.6349 49.0681 36.6527 49.8706C37.2616 50.2544 38.1539 50.5136 38.8675 50.6945C39.0749 50.4283 39.2583 50.1639 39.415 49.8706C38.2704 49.6355 37.9892 48.6688 38.8058 48.4062C39.1159 48.3063 39.6531 49.0309 40.1039 49.283C40.0256 48.4084 40.8802 48.1441 41.0331 49.0653C41.1501 49.7691 41.8661 47.599 42.587 48.7205C43.0398 49.4249 42.1811 49.7124 41.615 49.9607C42.177 51.6 43.9849 50.0114 44.7485 49.3862C45.1279 49.1158 47.3877 47.2287 47.6269 47.2125C48.1081 47.6146 48.6193 48.1174 49.1863 48.4205C49.6617 48.9003 51.1654 50.0603 51.7717 50.4623V49.283C53.5375 48.9924 53.852 48.3039 54.4885 46.8667C55.8748 47.8417 57.3138 48.4374 59.0667 48.6458L59.0659 57.829C59.0658 59.3516 59.0446 60.8767 59.0667 62.3991C58.3124 62.3503 57.5219 62.3963 56.7638 62.3976L52.2268 62.3991C51.5084 62.3958 50.7886 62.3837 50.0703 62.3991H36.6527H30.7526H28.7075H22.0159C22.0742 60.888 22.0167 59.3553 22.0163 57.8417L22.0159 48.6458ZM22.0159 48.6458L22.0163 57.8417C22.0167 59.3553 22.0742 60.888 22.0159 62.3991H28.7075H30.7526H36.6527V55.0829C36.3109 55.214 35.9939 55.3721 35.6818 55.5527C35.2641 53.6037 33.0282 52.8659 31.287 54.0011C31.2548 53.5673 31.2049 52.8847 30.7526 52.6295C30.5055 52.0888 29.231 52.1276 28.7075 52.1664C28.0705 52.3209 27.3747 52.2432 26.7186 52.4019L26.7435 52.3821C27.346 51.9089 28.1967 51.4964 28.7075 50.9643C28.6846 50.2905 28.7066 49.6097 28.7072 48.9351L28.7075 44.3765C28.375 44.76 28.151 45.2094 27.8126 45.5892C26.4133 47.1599 24.2554 48.3848 22.0159 48.6458ZM54.4885 46.8667C53.852 48.3039 53.5375 48.9924 51.7717 49.283V50.4623C52.7842 51.2477 53.9034 52.0539 54.8093 52.942C53.9053 52.4579 53.3182 52.1079 52.2268 52.1664C50.2942 51.8511 49.8778 52.7234 49.2749 54.0011C49.0718 54.4279 49.1912 56.7765 49.1863 57.385C50.1377 59.2186 52.8985 60.4105 50.0703 62.3991C50.7886 62.3837 51.5084 62.3958 52.2268 62.3991L56.7638 62.3976C57.5219 62.3963 58.3124 62.3503 59.0667 62.3991C59.0446 60.8767 59.0658 59.3516 59.0659 57.829L59.0667 48.6458C57.3138 48.4374 55.8748 47.8417 54.4885 46.8667Z" fill="#191223"/>
<path d="M45.6721 55.3869C45.7195 54.1176 46.7232 53.1232 48.1721 53.5387C48.5683 53.6653 48.9269 53.7864 49.2748 54.0008C49.0717 54.4277 49.1911 56.7762 49.1862 57.3847C50.1377 59.2183 52.8985 60.4103 50.0703 62.3988H36.6526V55.0827C38.5711 54.5626 39.6814 55.3889 40.297 57.0572C41.6567 55.1534 43.3074 53.9218 45.6721 55.3869Z" fill="#F47421"/>
<path d="M48.1722 53.5386C48.5683 53.6652 48.927 53.7862 49.2749 54.0007C49.0717 54.4275 49.1912 56.7761 49.1863 57.3846C47.8917 56.585 47.7281 54.8084 48.1722 53.5386Z" fill="#9B74E6"/>
<path d="M54.4884 46.8667C55.8747 47.8416 57.3138 48.4373 59.0666 48.6458L59.0659 57.829C59.0657 59.3516 59.0445 60.8767 59.0666 62.399C58.3123 62.3503 57.5218 62.3963 56.7637 62.3976L52.2267 62.399C51.5083 62.3957 50.7885 62.3836 50.0703 62.399C52.8985 60.4105 50.1377 59.2185 49.1862 57.385C49.1911 56.7765 49.0717 54.4279 49.2748 54.001C49.8777 52.7234 50.2941 51.8511 52.2267 52.1663C53.3182 52.1079 53.9053 52.4579 54.8092 52.942C53.9034 52.0538 52.7841 51.2477 51.7716 50.4622V49.283C53.5374 48.9924 53.852 48.3039 54.4884 46.8667ZM49.2748 54.001C49.0717 54.4279 49.1911 56.7765 49.1862 57.385C50.1377 59.2185 52.8985 60.4105 50.0703 62.399C50.7885 62.3836 51.5083 62.3957 52.2267 62.399C52.2612 61.258 52.2275 60.1065 52.2274 58.9645L52.2267 52.1663C50.2941 51.8511 49.8777 52.7234 49.2748 54.001Z" fill="#452D89"/>
<path d="M22.0159 48.6458C24.2554 48.3848 26.4133 47.1599 27.8126 45.5892C28.151 45.2094 28.375 44.76 28.7075 44.3765L28.7072 48.9351C28.7066 49.6097 28.6846 50.2905 28.7075 50.9643C28.1967 51.4964 27.346 51.9089 26.7435 52.3821L26.7186 52.4019C27.3747 52.2432 28.0705 52.3209 28.7075 52.1664C29.231 52.1276 30.5055 52.0888 30.7526 52.6295C31.2049 52.8847 31.2548 53.5673 31.287 54.0011C33.0282 52.8659 35.2641 53.6037 35.6818 55.5527C35.9939 55.3721 36.3109 55.214 36.6527 55.0829V62.3991H30.7526H28.7075H22.0159C22.0742 60.888 22.0167 59.3553 22.0163 57.8417L22.0159 48.6458ZM28.7075 52.1664C28.5865 55.4097 28.6153 59.1535 28.7075 62.3991H30.7526L30.753 55.7489C30.7533 54.7393 30.6773 53.6281 30.7526 52.6295C30.5055 52.0888 29.231 52.1276 28.7075 52.1664Z" fill="#452D89"/>
<path d="M30.7526 52.6294C31.2049 52.8846 31.2547 53.5673 31.287 54.001C33.0281 52.8658 35.264 53.6036 35.6817 55.5527C35.9938 55.372 36.3109 55.2139 36.6526 55.0829V62.399H30.7526L30.7529 55.7489C30.7532 54.7393 30.6773 53.628 30.7526 52.6294Z" fill="#452D89"/>
<rect x="19" y="62" width="45" height="5" rx="2.5" fill="#191223"/>
</svg>
