<svg width="127" height="102" viewBox="0 0 127 102" fill="none" xmlns="http://www.w3.org/2000/svg">
<path d="M127 89.6516H0V89.7206H127V89.6516Z" fill="#EBEBEB"/>
<path d="M114.275 94.0513H105.862V94.1203H114.275V94.0513Z" fill="#EBEBEB"/>
<path d="M84.1299 94.7949H81.9226V94.8639H84.1299V94.7949Z" fill="#EBEBEB"/>
<path d="M105.608 91.5137H100.734V91.5827H105.608V91.5137Z" fill="#EBEBEB"/>
<path d="M24.2952 91.9731H13.325V92.0421H24.2952V91.9731Z" fill="#EBEBEB"/>
<path d="M28.1662 91.9731H26.5583V92.0421H28.1662V91.9731Z" fill="#EBEBEB"/>
<path d="M57.188 93.127H33.3933V93.1959H57.188V93.127Z" fill="#EBEBEB"/>
<path d="M60.198 77.4564H11.1531C10.7689 77.4556 10.4007 77.2908 10.1292 76.9981C9.85778 76.7054 9.70532 76.3087 9.70532 75.895V1.67583C9.70867 1.26459 9.8626 0.871372 10.1337 0.581593C10.4048 0.291815 10.7711 0.128878 11.1531 0.128174H60.198C60.5826 0.128174 60.9515 0.292671 61.2235 0.585477C61.4955 0.878283 61.6483 1.27541 61.6483 1.6895V75.895C61.6483 76.3091 61.4955 76.7063 61.2235 76.9991C60.9515 77.2919 60.5826 77.4564 60.198 77.4564ZM11.1531 0.182862C10.7857 0.183586 10.4337 0.3412 10.1741 0.621107C9.91459 0.901015 9.76882 1.28034 9.76882 1.67583V75.895C9.76882 76.2905 9.91459 76.6699 10.1741 76.9498C10.4337 77.2297 10.7857 77.3873 11.1531 77.388H60.198C60.5656 77.3873 60.9179 77.2298 61.1779 76.9499C61.4378 76.6701 61.5841 76.2908 61.5848 75.895V1.67583C61.5841 1.28009 61.4378 0.90077 61.1779 0.62094C60.9179 0.341111 60.5656 0.183584 60.198 0.182862H11.1531Z" fill="#EBEBEB"/>
<path d="M115.141 77.4564H66.0934C65.709 77.4556 65.3405 77.2909 65.0686 76.9983C64.7968 76.7056 64.6437 76.3089 64.6431 75.895V1.67583C64.6471 1.26434 64.8016 0.871125 65.0731 0.581422C65.3445 0.291719 65.7111 0.128871 66.0934 0.128174H115.141C115.522 0.129597 115.888 0.292851 116.159 0.582553C116.429 0.872254 116.583 1.26506 116.586 1.67583V75.895C116.586 76.3082 116.434 76.7045 116.163 76.9971C115.892 77.2898 115.525 77.4549 115.141 77.4564ZM66.0934 0.182862C65.7258 0.183584 65.3734 0.341111 65.1135 0.62094C64.8536 0.90077 64.7072 1.28009 64.7066 1.67583V75.895C64.7072 76.2908 64.8536 76.6701 65.1135 76.9499C65.3734 77.2298 65.7258 77.3873 66.0934 77.388H115.141C115.508 77.3873 115.861 77.2298 116.121 76.9499C116.381 76.6701 116.527 76.2908 116.528 75.895V1.67583C116.527 1.28009 116.381 0.90077 116.121 0.62094C115.861 0.341111 115.508 0.183584 115.141 0.182862H66.0934Z" fill="#EBEBEB"/>
<path d="M69.1718 15.5144H19.4995V47.0008H69.1718V15.5144Z" fill="#EBEBEB"/>
<path d="M68.3642 18.1013H20.3074V45.8498H68.3642V18.1013Z" fill="#E0E0E0"/>
<path d="M38.4201 20.9888H22.6594V21.7872H38.4201V20.9888Z" fill="#F0F0F0"/>
<path d="M38.4201 22.6704H22.6594V23.4688H38.4201V22.6704Z" fill="#F0F0F0"/>
<path d="M38.4201 24.3521H22.6594V25.1505H38.4201V24.3521Z" fill="#F0F0F0"/>
<path d="M40.9599 26.031H25.1992V26.8294H40.9599V26.031Z" fill="#F0F0F0"/>
<path d="M40.9599 27.7126H25.1992V28.5111H40.9599V27.7126Z" fill="#F0F0F0"/>
<path d="M40.9599 29.3943H25.1992V30.1927H40.9599V29.3943Z" fill="#F0F0F0"/>
<path d="M43.5026 31.0732H27.7419V31.8717H43.5026V31.0732Z" fill="#F0F0F0"/>
<path d="M43.5026 32.7549H27.7419V33.5533H43.5026V32.7549Z" fill="#F0F0F0"/>
<path d="M40.9599 34.4363H25.1992V35.2347H40.9599V34.4363Z" fill="#F0F0F0"/>
<path d="M43.5026 36.1182H27.7419V36.9166H43.5026V36.1182Z" fill="#F0F0F0"/>
<path d="M43.5026 37.7971H27.7419V38.5956H43.5026V37.7971Z" fill="#F0F0F0"/>
<path d="M38.4201 39.4785H22.6594V40.277H38.4201V39.4785Z" fill="#F0F0F0"/>
<path d="M38.4201 41.1602H22.6594V41.9586H38.4201V41.1602Z" fill="#F0F0F0"/>
<path d="M38.4201 42.8391H22.6594V43.6375H38.4201V42.8391Z" fill="#F0F0F0"/>
<path d="M110.015 58.9062H77.564V79.477H110.015V58.9062Z" fill="#EBEBEB"/>
<path d="M109.489 60.5962H78.0923V78.7251H109.489V60.5962Z" fill="#E0E0E0"/>
<path d="M89.9261 62.4829H79.6289V63.0052H89.9261V62.4829Z" fill="#F0F0F0"/>
<path d="M89.9261 63.5796H79.6289V64.1019H89.9261V63.5796Z" fill="#F0F0F0"/>
<path d="M89.9261 64.6787H79.6289V65.201H89.9261V64.6787Z" fill="#F0F0F0"/>
<path d="M91.5848 65.7778H81.2876V66.3001H91.5848V65.7778Z" fill="#F0F0F0"/>
<path d="M91.5848 66.8743H81.2876V67.3965H91.5848V66.8743Z" fill="#F0F0F0"/>
<path d="M91.5848 67.9736H81.2876V68.4959H91.5848V67.9736Z" fill="#F0F0F0"/>
<path d="M93.2459 69.0701H82.9487V69.5923H93.2459V69.0701Z" fill="#F0F0F0"/>
<path d="M93.2459 70.1692H82.9487V70.6915H93.2459V70.1692Z" fill="#F0F0F0"/>
<path d="M91.5848 71.2686H81.2876V71.7908H91.5848V71.2686Z" fill="#F0F0F0"/>
<path d="M93.2459 72.365H82.9487V72.8873H93.2459V72.365Z" fill="#F0F0F0"/>
<path d="M93.2459 73.4641H82.9487V73.9864H93.2459V73.4641Z" fill="#F0F0F0"/>
<path d="M89.9261 74.5605H79.6289V75.0828H89.9261V74.5605Z" fill="#F0F0F0"/>
<path d="M89.9261 75.6599H79.6289V76.1822H89.9261V75.6599Z" fill="#F0F0F0"/>
<path d="M89.9261 76.759H79.6289V77.2813H89.9261V76.759Z" fill="#F0F0F0"/>
<path d="M101.686 34.8411H91.3892V35.3633H101.686V34.8411Z" fill="#F0F0F0"/>
<path d="M101.686 35.9404H91.3892V36.4627H101.686V35.9404Z" fill="#F0F0F0"/>
<path d="M101.686 37.0396H91.3892V37.5618H101.686V37.0396Z" fill="#F0F0F0"/>
<path d="M103.347 38.136H91.3892V38.6583H103.347V38.136Z" fill="#F0F0F0"/>
<path d="M103.347 39.2354H91.3892V39.7576H103.347V39.2354Z" fill="#F0F0F0"/>
<path d="M96.304 17.415H86.0068V17.9373H96.304V17.415Z" fill="#F0F0F0"/>
<path d="M96.304 18.5142H86.0068V19.0364H96.304V18.5142Z" fill="#F0F0F0"/>
<path d="M96.304 19.6106H86.0068V20.1329H96.304V19.6106Z" fill="#F0F0F0"/>
<path d="M97.9652 20.71H86.0068V21.2322H97.9652V20.71Z" fill="#F0F0F0"/>
<path d="M97.9652 21.8091H86.0068V22.3313H97.9652V21.8091Z" fill="#F0F0F0"/>
<path d="M103.347 40.3318H91.3892V40.8541H103.347V40.3318Z" fill="#F0F0F0"/>
<path d="M105.009 41.4309H91.3892V41.9532H105.009V41.4309Z" fill="#F0F0F0"/>
<path d="M105.009 42.53H91.3892V43.0523H105.009V42.53Z" fill="#F0F0F0"/>
<path d="M103.347 43.6267H91.3892V44.149H103.347V43.6267Z" fill="#F0F0F0"/>
<path d="M105.009 44.7258H91.3892V45.2481H105.009V44.7258Z" fill="#F0F0F0"/>
<path d="M105.009 45.8223H91.3892V46.3445H105.009V45.8223Z" fill="#F0F0F0"/>
<path d="M101.686 46.9216H91.3892V47.4439H101.686V46.9216Z" fill="#F0F0F0"/>
<path d="M101.686 48.0208H91.3892V48.543H101.686V48.0208Z" fill="#F0F0F0"/>
<path d="M101.686 49.1172H91.3892V49.6395H101.686V49.1172Z" fill="#F0F0F0"/>
<path d="M31.4578 58.5127H19.4995V59.035H31.4578V58.5127Z" fill="#F0F0F0"/>
<path d="M33.119 59.6118H19.4995V60.1341H33.119V59.6118Z" fill="#F0F0F0"/>
<path d="M33.119 60.7109H19.4995V61.2332H33.119V60.7109Z" fill="#F0F0F0"/>
<path d="M29.7967 61.8074H19.4995V62.3296H29.7967V61.8074Z" fill="#F0F0F0"/>
<path d="M29.7967 62.9067H19.4995V63.429H29.7967V62.9067Z" fill="#F0F0F0"/>
<path d="M29.7967 64.0032H19.4995V64.5254H29.7967V64.0032Z" fill="#F0F0F0"/>
<path d="M90.1928 34.8357H88.1431V37.0423H90.1928V34.8357Z" fill="#F0F0F0"/>
<path d="M54.4195 69.5593H44.1223V70.0816H54.4195V69.5593Z" fill="#F0F0F0"/>
<path d="M54.4195 70.656H44.1223V71.1783H54.4195V70.656Z" fill="#F0F0F0"/>
<path d="M54.4195 71.7551H44.1223V72.2774H54.4195V71.7551Z" fill="#F0F0F0"/>
<path d="M56.0806 72.8545H44.1223V73.3768H56.0806V72.8545Z" fill="#F0F0F0"/>
<path d="M56.0806 73.9509H44.1223V74.4732H56.0806V73.9509Z" fill="#F0F0F0"/>
<path d="M56.0806 75.05H44.1223V75.5723H56.0806V75.05Z" fill="#F0F0F0"/>
<path d="M57.7418 76.1465H44.1223V76.6688H57.7418V76.1465Z" fill="#F0F0F0"/>
<path d="M57.7418 77.2458H44.1223V77.7681H57.7418V77.2458Z" fill="#F0F0F0"/>
<path d="M56.0806 78.345H44.1223V78.8672H56.0806V78.345Z" fill="#F0F0F0"/>
<path d="M57.7418 79.4417H44.1223V79.9639H57.7418V79.4417Z" fill="#F0F0F0"/>
<path d="M57.7418 80.5408H44.1223V81.063H57.7418V80.5408Z" fill="#F0F0F0"/>
<path d="M54.4195 81.6372H44.1223V82.1595H54.4195V81.6372Z" fill="#F0F0F0"/>
<path d="M54.4195 82.7363H44.1223V83.2586H54.4195V82.7363Z" fill="#F0F0F0"/>
<path d="M16.7639 59.4642C16.7639 59.6513 16.8155 59.8342 16.912 59.9898C17.0086 60.1454 17.1459 60.2666 17.3064 60.3382C17.467 60.4098 17.6437 60.4286 17.8142 60.3921C17.9847 60.3556 18.1413 60.2655 18.2642 60.1332C18.3871 60.0008 18.4708 59.8323 18.5047 59.6487C18.5386 59.4652 18.5212 59.275 18.4547 59.1021C18.3882 58.9292 18.2755 58.7815 18.131 58.6775C17.9865 58.5736 17.8166 58.5181 17.6428 58.5181C17.5273 58.5177 17.4128 58.5419 17.306 58.5894C17.1993 58.6368 17.1023 58.7064 17.0206 58.7944C16.9389 58.8823 16.8742 58.9867 16.8301 59.1017C16.7861 59.2166 16.7636 59.3398 16.7639 59.4642Z" fill="#F0F0F0"/>
<path d="M41.6635 69.7537L40.6958 71.5584H42.6313L41.6635 69.7537Z" fill="#F0F0F0"/>
<path d="M63.5 102C90.699 102 112.748 100.614 112.748 98.9046C112.748 97.1951 90.699 95.8093 63.5 95.8093C36.3011 95.8093 14.252 97.1951 14.252 98.9046C14.252 100.614 36.3011 102 63.5 102Z" fill="#F5F5F5"/>
<path d="M84.4447 19.8484H77.1473C76.5511 19.8484 75.9794 20.1033 75.5578 20.5572C75.1362 21.011 74.8994 21.6265 74.8994 22.2683V29.1043C74.8994 29.7461 75.1362 30.3616 75.5578 30.8154C75.9794 31.2692 76.5511 31.5242 77.1473 31.5242H79.2784L77.5004 35.3222L80.8024 31.5242H84.4574C85.0497 31.5199 85.6164 31.2641 86.0344 30.8125C86.4525 30.3609 86.6881 29.75 86.6901 29.1125V22.2765C86.6914 21.9582 86.6343 21.6427 86.5221 21.3481C86.4099 21.0536 86.2447 20.7858 86.036 20.5602C85.8274 20.3346 85.5794 20.1556 85.3063 20.0334C85.0333 19.9113 84.7405 19.8484 84.4447 19.8484Z" fill="#FAA353"/>
<path opacity="0.7" d="M84.4447 19.8484H77.1473C76.5511 19.8484 75.9794 20.1033 75.5578 20.5572C75.1362 21.011 74.8994 21.6265 74.8994 22.2683V29.1043C74.8994 29.7461 75.1362 30.3616 75.5578 30.8154C75.9794 31.2692 76.5511 31.5242 77.1473 31.5242H79.2784L77.5004 35.3222L80.8024 31.5242H84.4574C85.0497 31.5199 85.6164 31.2641 86.0344 30.8125C86.4525 30.3609 86.6881 29.75 86.6901 29.1125V22.2765C86.6914 21.9582 86.6343 21.6427 86.5221 21.3481C86.4099 21.0536 86.2447 20.7858 86.036 20.5602C85.8274 20.3346 85.5794 20.1556 85.3063 20.0334C85.0333 19.9113 84.7405 19.8484 84.4447 19.8484Z" fill="#F8F3EE"/>
<path d="M83.3559 28.4141C84.7704 26.8914 84.7704 24.4226 83.3559 22.8998C81.9414 21.3771 79.648 21.3771 78.2335 22.8998C76.819 24.4226 76.819 26.8914 78.2335 28.4141C79.648 29.9369 81.9414 29.9369 83.3559 28.4141Z" fill="#FAA353"/>
<path d="M80.4162 27.3981C80.3679 27.3982 80.3202 27.387 80.2763 27.3653C80.2324 27.3436 80.1935 27.3118 80.1622 27.2723L78.7398 25.4703C78.6825 25.3978 78.6543 25.3038 78.6615 25.2089C78.6686 25.1141 78.7105 25.0261 78.7779 24.9645C78.8452 24.9028 78.9326 24.8725 79.0207 24.8802C79.1088 24.8879 79.1905 24.933 79.2478 25.0055L80.4162 26.4848L82.344 24.0403C82.3724 24.0044 82.407 23.9748 82.446 23.9533C82.4849 23.9318 82.5274 23.9188 82.5711 23.915C82.6147 23.9112 82.6586 23.9167 82.7003 23.9311C82.742 23.9456 82.7806 23.9687 82.8139 23.9993C82.8473 24.0298 82.8747 24.0671 82.8947 24.109C82.9146 24.1509 82.9267 24.1967 82.9303 24.2437C82.9338 24.2907 82.9287 24.3379 82.9153 24.3828C82.9019 24.4276 82.8804 24.4692 82.852 24.5051L80.6727 27.2723C80.6409 27.3119 80.6015 27.3437 80.5572 27.3654C80.5129 27.3871 80.4648 27.3982 80.4162 27.3981Z" fill="#F8F3EE"/>
<path d="M97.2819 96.0748H98.5747C98.7438 96.0748 98.906 96.1471 99.0255 96.2758C99.1451 96.4045 99.2123 96.5791 99.2123 96.7611V98.4892H96.6367V96.7611C96.6367 96.6703 96.6535 96.5803 96.686 96.4965C96.7185 96.4127 96.7661 96.3367 96.8261 96.2728C96.8862 96.209 96.9573 96.1586 97.0356 96.1246C97.1138 96.0906 97.1975 96.0737 97.2819 96.0748Z" fill="#263238"/>
<path d="M97.3784 96.9991C97.3784 96.8842 96.9491 85.4354 93.0451 73.5244C89.4663 62.6088 82.1409 49.049 67.5664 46.4541L67.734 45.3604C74.3965 46.5498 80.1597 50.0225 84.8613 55.6772C88.6052 60.1779 91.6837 66.0678 94.0053 73.1772C97.955 85.244 98.3842 96.8377 98.3868 96.9662L97.3784 96.9991Z" fill="#263238"/>
<path d="M102.362 96.0747H103.655C103.824 96.0747 103.986 96.147 104.106 96.2757C104.225 96.4044 104.292 96.579 104.292 96.761V98.4892H101.722V96.761C101.722 96.6707 101.738 96.5812 101.771 96.4978C101.803 96.4143 101.85 96.3385 101.91 96.2748C101.969 96.211 102.04 96.1605 102.117 96.1262C102.195 96.0918 102.278 96.0744 102.362 96.0747Z" fill="#263238"/>
<path opacity="0.2" d="M97.2819 96.0748H98.5747C98.7438 96.0748 98.906 96.1471 99.0255 96.2758C99.1451 96.4045 99.2123 96.5791 99.2123 96.7611V98.4892H96.6367V96.7611C96.6367 96.6703 96.6535 96.5803 96.686 96.4965C96.7185 96.4127 96.7661 96.3367 96.8261 96.2728C96.8862 96.209 96.9573 96.1586 97.0356 96.1246C97.1138 96.0906 97.1975 96.0737 97.2819 96.0748Z" fill="#F8F3EE"/>
<path opacity="0.2" d="M102.362 96.0747H103.655C103.824 96.0747 103.986 96.147 104.106 96.2757C104.225 96.4044 104.292 96.579 104.292 96.761V98.4892H101.722V96.761C101.722 96.6707 101.738 96.5812 101.771 96.4978C101.803 96.4143 101.85 96.3385 101.91 96.2748C101.969 96.211 102.04 96.1605 102.117 96.1262C102.195 96.0918 102.278 96.0744 102.362 96.0747Z" fill="#F8F3EE"/>
<path d="M102.499 97.3215C102.223 94.7638 101.486 92.2886 100.33 90.0344C97.7899 85.1672 93.7005 82.4137 88.176 81.886L88.2649 80.7922C95.6055 81.4895 99.3647 85.9301 101.219 89.5422C102.448 91.921 103.225 94.5395 103.505 97.245L102.499 97.3215Z" fill="#263238"/>
<path d="M25.1206 98.4893H22.5501V96.7611C22.5501 96.5791 22.6173 96.4045 22.7369 96.2758C22.8564 96.1471 23.0186 96.0748 23.1877 96.0748H24.4805C24.6496 96.0748 24.8118 96.1471 24.9313 96.2758C25.0509 96.4045 25.1181 96.5791 25.1181 96.7611V98.4893H25.1206Z" fill="#263238"/>
<path d="M23.3679 96.9797C23.3679 96.8539 23.4441 84.1883 31.562 75.4383C36.7232 69.8766 43.9521 67.0547 53.0529 67.0547V68.1484C41.1555 68.1484 32.7177 72.9801 27.9755 82.5121C25.8031 86.991 24.5767 91.9313 24.3839 96.9797H23.3679Z" fill="#263238"/>
<path opacity="0.2" d="M25.1206 98.4893H22.5501V96.7611C22.5501 96.5791 22.6173 96.4045 22.7369 96.2758C22.8564 96.1471 23.0186 96.0748 23.1877 96.0748H24.4805C24.6496 96.0748 24.8118 96.1471 24.9313 96.2758C25.0509 96.4045 25.1181 96.5791 25.1181 96.7611V98.4893H25.1206Z" fill="#F8F3EE"/>
<path d="M56.0348 67.1123H54.6277V68.1104H56.0348V67.1123Z" fill="#263238"/>
<path opacity="0.7" d="M56.0348 67.1123H54.6277V68.1104H56.0348V67.1123Z" fill="#F8F3EE"/>
<path d="M54.8816 66.7185H52.3797C52.1875 66.7185 52.0317 66.8862 52.0317 67.0931V68.1294C52.0317 68.3363 52.1875 68.5041 52.3797 68.5041H54.8816C55.0738 68.5041 55.2296 68.3363 55.2296 68.1294V67.0931C55.2296 66.8862 55.0738 66.7185 54.8816 66.7185Z" fill="#263238"/>
<path opacity="0.2" d="M54.8816 66.7185H52.3797C52.1875 66.7185 52.0317 66.8862 52.0317 67.0931V68.1294C52.0317 68.3363 52.1875 68.5041 52.3797 68.5041H54.8816C55.0738 68.5041 55.2296 68.3363 55.2296 68.1294V67.0931C55.2296 66.8862 55.0738 66.7185 54.8816 66.7185Z" fill="#F8F3EE"/>
<path d="M64.4727 46.3691H65.8799V45.3711H64.4727V46.3691Z" fill="#263238"/>
<path opacity="0.7" d="M64.4727 46.3691H65.8799V45.3711H64.4727V46.3691Z" fill="#F8F3EE"/>
<path d="M65.6259 46.7629H68.1279C68.32 46.7629 68.4758 46.5952 68.4758 46.3883V45.352C68.4758 45.1451 68.32 44.9774 68.1279 44.9774H65.6259C65.4338 44.9774 65.278 45.1451 65.278 45.352V46.3883C65.278 46.5952 65.4338 46.7629 65.6259 46.7629Z" fill="#263238"/>
<path opacity="0.2" d="M65.6259 46.7629H68.1279C68.32 46.7629 68.4758 46.5952 68.4758 46.3883V45.352C68.4758 45.1451 68.32 44.9774 68.1279 44.9774H65.6259C65.4338 44.9774 65.278 45.1451 65.278 45.352V46.3883C65.278 46.5952 65.4338 46.7629 65.6259 46.7629Z" fill="#F8F3EE"/>
<path d="M84.7698 81.8452H86.177V80.8472H84.7698V81.8452Z" fill="#263238"/>
<path opacity="0.7" d="M84.7698 81.8452H86.177V80.8472H84.7698V81.8452Z" fill="#F8F3EE"/>
<path d="M85.9231 82.2388H88.425C88.6172 82.2388 88.7729 82.0711 88.7729 81.8642V80.8278C88.7729 80.6209 88.6172 80.4532 88.425 80.4532H85.9231C85.7309 80.4532 85.5751 80.6209 85.5751 80.8278V81.8642C85.5751 82.0711 85.7309 82.2388 85.9231 82.2388Z" fill="#263238"/>
<path opacity="0.2" d="M85.9231 82.2388H88.425C88.6172 82.2388 88.7729 82.0711 88.7729 81.8642V80.8278C88.7729 80.6209 88.6172 80.4532 88.425 80.4532H85.9231C85.7309 80.4532 85.5751 80.6209 85.5751 80.8278V81.8642C85.5751 82.0711 85.7309 82.2388 85.9231 82.2388Z" fill="#F8F3EE"/>
<path d="M41.0921 73.4369L50.4165 70.9268C52.2824 70.4181 54.2315 70.3747 56.1154 70.8C57.9992 71.2253 59.768 72.1079 61.2869 73.3807C62.8058 74.6535 64.0347 76.2828 64.88 78.1444C65.7253 80.006 66.1646 82.0507 66.1645 84.1229V98.7901H31.4731V86.6494C31.4735 83.6065 32.4212 80.6514 34.1648 78.2564C35.9085 75.8613 38.3475 74.1645 41.0921 73.4369Z" fill="#FAA353"/>
<path opacity="0.2" d="M41.0921 73.4369L50.4165 70.9268C52.2824 70.4181 54.2315 70.3747 56.1154 70.8C57.9992 71.2253 59.768 72.1079 61.2869 73.3807C62.8058 74.6535 64.0347 76.2828 64.88 78.1444C65.7253 80.006 66.1646 82.0507 66.1645 84.1229V98.7901H31.4731V86.6494C31.4735 83.6065 32.4212 80.6514 34.1648 78.2564C35.9085 75.8613 38.3475 74.1645 41.0921 73.4369Z" fill="#F8F3EE"/>
<path opacity="0.2" d="M66.1467 98.79H40.8686V84.1228C40.8686 80.5142 42.2003 77.0534 44.5705 74.5018C46.9408 71.9501 50.1556 70.5166 53.5077 70.5166C56.8598 70.5166 60.0746 71.9501 62.4448 74.5018C64.8151 77.0534 66.1467 80.5142 66.1467 84.1228V98.79Z" fill="black"/>
<path d="M68.8867 48.7471L50.8711 50.6555L53.4869 79.272L71.5024 77.3636L68.8867 48.7471Z" fill="#263238"/>
<path d="M69.4232 51.8107L50.8996 53.7729C50.5534 53.8096 50.3003 54.1415 50.3344 54.5142L50.4035 55.2707C50.4376 55.6434 50.7459 55.9159 51.0921 55.8792L69.6158 53.9169C69.962 53.8802 70.2151 53.5483 70.181 53.1756L70.1118 52.4191C70.0778 52.0464 69.7695 51.774 69.4232 51.8107Z" fill="#263238"/>
<path opacity="0.1" d="M69.4232 51.8107L50.8996 53.7729C50.5534 53.8096 50.3003 54.1415 50.3344 54.5142L50.4035 55.2707C50.4376 55.6434 50.7459 55.9159 51.0921 55.8792L69.6158 53.9169C69.962 53.8802 70.2151 53.5483 70.181 53.1756L70.1118 52.4191C70.0778 52.0464 69.7695 51.774 69.4232 51.8107Z" fill="#F8F3EE"/>
<path d="M69.7731 55.649L51.2494 57.6113C50.9032 57.648 50.6502 57.9799 50.6842 58.3526L50.7534 59.1091C50.7875 59.4818 51.0958 59.7542 51.442 59.7176L69.9656 57.7553C70.3119 57.7186 70.5649 57.3867 70.5308 57.014L70.4617 56.2575C70.4276 55.8848 70.1193 55.6124 69.7731 55.649Z" fill="#263238"/>
<path opacity="0.1" d="M69.7731 55.649L51.2494 57.6113C50.9032 57.648 50.6502 57.9799 50.6842 58.3526L50.7534 59.1091C50.7875 59.4818 51.0958 59.7542 51.442 59.7176L69.9656 57.7553C70.3119 57.7186 70.5649 57.3867 70.5308 57.014L70.4617 56.2575C70.4276 55.8848 70.1193 55.6124 69.7731 55.649Z" fill="#F8F3EE"/>
<path d="M70.608 59.6904L51.9949 61.6942C51.647 61.7316 51.3932 62.0656 51.428 62.4401L51.4986 63.2002C51.5334 63.5748 51.8436 63.848 52.1915 63.8106L70.8046 61.8068C71.1525 61.7694 71.4063 61.4354 71.3716 61.0609L71.3009 60.3007C71.2662 59.9262 70.9559 59.6529 70.608 59.6904Z" fill="#263238"/>
<path opacity="0.1" d="M70.608 59.6904L51.9949 61.6942C51.647 61.7316 51.3932 62.0656 51.428 62.4401L51.4986 63.2002C51.5334 63.5748 51.8436 63.848 52.1915 63.8106L70.8046 61.8068C71.1525 61.7694 71.4063 61.4354 71.3716 61.0609L71.3009 60.3007C71.2662 59.9262 70.9559 59.6529 70.608 59.6904Z" fill="#F8F3EE"/>
<path d="M70.4753 63.3204L51.9516 65.2827C51.6054 65.3194 51.3523 65.6513 51.3864 66.024L51.4555 66.7805C51.4896 67.1532 51.7979 67.4256 52.1441 67.389L70.6678 65.4267C71.014 65.39 71.267 65.0581 71.233 64.6854L71.1638 63.9289C71.1298 63.5562 70.8215 63.2838 70.4753 63.3204Z" fill="#263238"/>
<path opacity="0.1" d="M70.4753 63.3204L51.9516 65.2827C51.6054 65.3194 51.3523 65.6513 51.3864 66.024L51.4555 66.7805C51.4896 67.1532 51.7979 67.4256 52.1441 67.389L70.6678 65.4267C71.014 65.39 71.267 65.0581 71.233 64.6854L71.1638 63.9289C71.1298 63.5562 70.8215 63.2838 70.4753 63.3204Z" fill="#F8F3EE"/>
<path d="M70.8249 67.1532L52.3012 69.1155C51.955 69.1522 51.7019 69.484 51.736 69.8567L51.8052 70.6132C51.8392 70.986 52.1475 71.2584 52.4937 71.2217L71.0174 69.2594C71.3636 69.2228 71.6167 68.8909 71.5826 68.5182L71.5134 67.7616C71.4794 67.3889 71.1711 67.1165 70.8249 67.1532Z" fill="#263238"/>
<path opacity="0.1" d="M70.8249 67.1532L52.3012 69.1155C51.955 69.1522 51.7019 69.484 51.736 69.8567L51.8052 70.6132C51.8392 70.986 52.1475 71.2584 52.4937 71.2217L71.0174 69.2594C71.3636 69.2228 71.6167 68.8909 71.5826 68.5182L71.5134 67.7616C71.4794 67.3889 71.1711 67.1165 70.8249 67.1532Z" fill="#F8F3EE"/>
<path d="M71.1772 70.9916L52.6535 72.9539C52.3073 72.9905 52.0542 73.3224 52.0883 73.6951L52.1574 74.4516C52.1915 74.8243 52.4998 75.0968 52.846 75.0601L71.3697 73.0978C71.7159 73.0611 71.969 72.7292 71.9349 72.3565L71.8657 71.6C71.8317 71.2273 71.5234 70.9549 71.1772 70.9916Z" fill="#263238"/>
<path opacity="0.1" d="M71.1772 70.9916L52.6535 72.9539C52.3073 72.9905 52.0542 73.3224 52.0883 73.6951L52.1574 74.4516C52.1915 74.8243 52.4998 75.0968 52.846 75.0601L71.3697 73.0978C71.7159 73.0611 71.969 72.7292 71.9349 72.3565L71.8657 71.6C71.8317 71.2273 71.5234 70.9549 71.1772 70.9916Z" fill="#F8F3EE"/>
<path d="M52.7227 77.2375H74.3711V83.3954H50.9473V79.1516C50.9473 78.6444 51.1342 78.158 51.4671 77.7991C51.8 77.4402 52.2516 77.2383 52.7227 77.2375Z" fill="#263238"/>
<path opacity="0.2" d="M52.7227 77.2375H74.3711V83.3954H50.9473V79.1516C50.9473 78.6444 51.1342 78.158 51.4671 77.7991C51.8 77.4402 52.2516 77.2383 52.7227 77.2375Z" fill="#F8F3EE"/>
<path d="M62.0292 80.3083V98.79H40.8684V84.1228C40.8676 82.8317 41.0386 81.5472 41.3764 80.3083H62.0292Z" fill="#FAA353"/>
<path d="M84.4779 73.4369L75.1536 70.9268C73.2897 70.424 71.3439 70.3851 69.464 70.8131C67.584 71.2411 65.8194 72.1247 64.3043 73.3969C62.7891 74.669 61.5631 76.2961 60.7196 78.1547C59.876 80.0132 59.4371 82.0543 59.436 84.1229V98.7901H94.0994V86.6495C94.0985 83.6062 93.1502 80.6512 91.4062 78.2562C89.6621 75.8612 87.2228 74.1644 84.4779 73.4369Z" fill="#FAA353"/>
<path opacity="0.2" d="M84.4779 73.4369L75.1536 70.9268C73.2897 70.424 71.3439 70.3851 69.464 70.8131C67.584 71.2411 65.8194 72.1247 64.3043 73.3969C62.7891 74.669 61.5631 76.2961 60.7196 78.1547C59.876 80.0132 59.4371 82.0543 59.436 84.1229V98.7901H94.0994V86.6495C94.0985 83.6062 93.1502 80.6512 91.4062 78.2562C89.6621 75.8612 87.2228 74.1644 84.4779 73.4369Z" fill="#F8F3EE"/>
<path opacity="0.2" d="M81.4576 73.043C84.8097 73.043 88.0245 74.4765 90.3948 77.0282C92.7651 79.5798 94.0967 83.0406 94.0967 86.6492V98.7871H68.8186V86.6492C68.8186 83.0406 70.1502 79.5798 72.5205 77.0282C74.8908 74.4765 78.1056 73.043 81.4576 73.043Z" fill="black"/>
<path d="M37.5462 86.4744H60.6196C61.7385 86.4744 62.8116 86.9529 63.6028 87.8046C64.394 88.6564 64.8385 89.8116 64.8385 91.0162V98.79H33.3298V91.0134C33.3305 89.8098 33.775 88.6557 34.5655 87.8046C35.3561 86.9535 36.4282 86.4751 37.5462 86.4744Z" fill="#263238"/>
<path opacity="0.2" d="M37.5462 86.4744H60.6196C61.7385 86.4744 62.8116 86.9529 63.6028 87.8046C64.394 88.6564 64.8385 89.8116 64.8385 91.0162V98.79H33.3298V91.0134C33.3305 89.8098 33.775 88.6557 34.5655 87.8046C35.3561 86.9535 36.4282 86.4751 37.5462 86.4744Z" fill="#F8F3EE"/>
<path opacity="0.2" d="M36.6801 87.9646H55.0113C55.9005 87.9646 56.7533 88.3449 57.3821 89.0218C58.0108 89.6986 58.3641 90.6167 58.3641 91.574V98.79H33.3298V91.574C33.3298 90.6172 33.6827 89.6995 34.3109 89.0227C34.9392 88.3459 35.7913 87.9653 36.6801 87.9646Z" fill="#F8F3EE"/>
<path opacity="0.4" d="M82.6364 78.1265C78.7273 78.1265 75.5574 81.8644 75.5574 86.4745C75.5574 91.0847 78.7273 94.8198 82.6364 94.8198C86.548 94.8198 89.7179 91.0847 89.7179 86.4745C89.7179 81.8644 86.548 78.1265 82.6364 78.1265Z" fill="black"/>
<path d="M82.2959 78.5146C78.5697 78.5146 75.5471 82.0693 75.5471 86.4744C75.5471 90.8686 78.5697 94.4315 82.2959 94.4315C86.0246 94.4315 89.0447 90.8768 89.0447 86.4744C89.0548 82.0775 86.0348 78.5146 82.2959 78.5146Z" fill="#263238"/>
<path d="M81.8845 82.761H83.5304C85.1458 82.761 86.4539 84.4235 86.4539 86.4743C86.4539 88.525 85.1458 90.1848 83.5304 90.1848H81.8845C80.269 90.1848 78.9609 88.5223 78.9609 86.4743C78.9609 84.4262 80.264 82.761 81.8845 82.761Z" fill="#FAA353"/>
<path opacity="0.4" d="M81.8845 82.761H83.5304C85.1458 82.761 86.4539 84.4235 86.4539 86.4743C86.4539 88.525 85.1458 90.1848 83.5304 90.1848H81.8845C80.269 90.1848 78.9609 88.5223 78.9609 86.4743C78.9609 84.4262 80.264 82.761 81.8845 82.761Z" fill="black"/>
<path d="M83.5303 90.185C85.1464 90.185 86.4564 88.5237 86.4564 86.4745C86.4564 84.4252 85.1464 82.7639 83.5303 82.7639C81.9143 82.7639 80.6042 84.4252 80.6042 86.4745C80.6042 88.5237 81.9143 90.185 83.5303 90.185Z" fill="#FAA353"/>
<path opacity="0.4" d="M83.5304 89.5969C84.8004 89.5969 85.8672 88.1668 85.8672 86.4743C85.8672 84.7817 84.7953 83.3489 83.5304 83.3489C82.2655 83.3489 81.1936 84.7817 81.1936 86.4743C81.1936 88.1668 82.2629 89.5969 83.5304 89.5969Z" fill="black"/>
<path d="M83.2866 89.2689C84.4219 89.2689 85.3795 87.9865 85.3795 86.4716C85.3795 84.9568 84.4219 83.6716 83.2866 83.6716C82.1512 83.6716 81.1936 84.9541 81.1936 86.4716C81.1936 87.9892 82.1512 89.2689 83.2866 89.2689Z" fill="#263238"/>
<path opacity="0.4" d="M47.5842 93.417C47.5842 94.1799 47.0762 94.7842 46.464 94.7842C45.8519 94.7842 45.3464 94.1689 45.3464 93.417C45.3464 92.665 45.8544 92.0498 46.464 92.0498C47.0736 92.0498 47.5842 92.6568 47.5842 93.417Z" fill="black"/>
<path d="M47.5843 93.417C47.5643 93.5828 47.5002 93.7389 47.3999 93.8665C47.2995 93.9942 47.1671 94.088 47.0185 94.1367C46.8699 94.1854 46.7114 94.1869 46.562 94.1411C46.4126 94.0953 46.2786 94.004 46.1762 93.8783C46.0737 93.7526 46.0071 93.5978 45.9843 93.4324C45.9615 93.2669 45.9836 93.0979 46.0477 92.9456C46.1119 92.7933 46.2155 92.6642 46.3461 92.5737C46.4767 92.4832 46.6288 92.4351 46.7842 92.4353C47.0106 92.4529 47.2216 92.5657 47.3713 92.7494C47.521 92.9331 47.5976 93.173 47.5843 93.417Z" fill="#FAA353"/>
<path opacity="0.4" d="M50.9244 93.417C50.9244 94.1799 50.4164 94.7842 49.8068 94.7842C49.1972 94.7842 48.6892 94.1689 48.6892 93.417C48.6892 92.665 49.1972 92.0498 49.8068 92.0498C50.4164 92.0498 50.9244 92.6568 50.9244 93.417Z" fill="black"/>
<path d="M50.9243 93.417C50.9038 93.582 50.8396 93.7373 50.7392 93.8641C50.6389 93.9909 50.5068 94.0839 50.3587 94.132C50.2106 94.1801 50.0527 94.1812 49.904 94.1352C49.7553 94.0893 49.622 93.9981 49.5202 93.8728C49.4183 93.7474 49.3522 93.5931 49.3296 93.4283C49.3071 93.2635 49.3291 93.0952 49.3931 92.9436C49.4571 92.7919 49.5604 92.6634 49.6905 92.5732C49.8206 92.4831 49.972 92.4352 50.1267 92.4353C50.353 92.4528 50.5637 92.5658 50.713 92.7496C50.8623 92.9334 50.9383 93.1732 50.9243 93.417Z" fill="#FAA353"/>
<path opacity="0.4" d="M54.2669 93.417C54.2669 94.1799 53.7589 94.7842 53.1493 94.7842C52.5397 94.7842 52.0317 94.1689 52.0317 93.417C52.0317 92.665 52.5397 92.0498 53.1493 92.0498C53.7589 92.0498 54.2669 92.6568 54.2669 93.417Z" fill="black"/>
<path d="M54.2671 93.417C54.2466 93.582 54.1823 93.7373 54.082 93.8641C53.9817 93.9909 53.8496 94.0839 53.7015 94.132C53.5533 94.1801 53.3955 94.1812 53.2468 94.1352C53.0981 94.0893 52.9648 93.9981 52.8629 93.8728C52.7611 93.7474 52.6949 93.5931 52.6724 93.4283C52.6499 93.2635 52.6719 93.0952 52.7359 92.9436C52.7999 92.7919 52.9031 92.6634 53.0332 92.5732C53.1633 92.4831 53.3148 92.4352 53.4695 92.4353C53.6955 92.4535 53.9058 92.5667 54.055 92.7503C54.2042 92.934 54.2804 93.1734 54.2671 93.417Z" fill="#FAA353"/>
<path opacity="0.4" d="M37.7037 92.0415H36.5683C36.2457 92.0415 35.9841 92.3231 35.9841 92.6704V94.1661C35.9841 94.5134 36.2457 94.795 36.5683 94.795H37.7037C38.0264 94.795 38.2879 94.5134 38.2879 94.1661V92.6704C38.2879 92.3231 38.0264 92.0415 37.7037 92.0415Z" fill="black"/>
<path d="M37.8204 92.3179H36.9644C36.7063 92.3179 36.4971 92.5431 36.4971 92.821V94.0159C36.4971 94.2938 36.7063 94.519 36.9644 94.519H37.8204C38.0785 94.519 38.2878 94.2938 38.2878 94.0159V92.821C38.2878 92.5431 38.0785 92.3179 37.8204 92.3179Z" fill="#FAA353"/>
<path d="M50.386 47.042H65.6996V59.4643C65.6996 60.0901 65.4687 60.6903 65.0576 61.1329C64.6465 61.5754 64.089 61.824 63.5076 61.824H50.386V47.042Z" fill="#263238"/>
<path opacity="0.2" d="M50.386 47.042H65.6996V59.4643C65.6996 60.0901 65.4687 60.6903 65.0576 61.1329C64.6465 61.5754 64.089 61.824 63.5076 61.824H50.386V47.042Z" fill="#F8F3EE"/>
<path d="M56.3398 58.5892C56.1598 58.5892 55.9815 58.551 55.8153 58.4767C55.649 58.4025 55.498 58.2937 55.3708 58.1565C55.2436 58.0194 55.1428 57.8566 55.0742 57.6775C55.0055 57.4983 54.9704 57.3064 54.9707 57.1126V50.9165C54.9704 50.7227 55.0055 50.5308 55.0742 50.3517C55.1428 50.1725 55.2436 50.0097 55.3708 49.8726C55.498 49.7354 55.649 49.6266 55.8153 49.5524C55.9815 49.4782 56.1598 49.4399 56.3398 49.4399C56.7035 49.4399 57.0524 49.5955 57.3096 49.8724C57.5669 50.1493 57.7114 50.5249 57.7114 50.9165V57.1126C57.7114 57.5042 57.5669 57.8798 57.3096 58.1567C57.0524 58.4336 56.7035 58.5892 56.3398 58.5892Z" fill="#263238"/>
<path d="M71.8058 34.1083V46.3391C71.8058 47.3131 71.4464 48.2471 70.8067 48.9358C70.167 49.6245 69.2993 50.0114 68.3946 50.0114H59.7027C58.387 50.0114 54.9707 51.1598 54.9707 52.5762V57.4981H40.1143V37.2145C40.1139 35.8039 40.3718 34.4071 40.873 33.1038C41.3743 31.8005 42.1092 30.6164 43.0357 29.6189C43.9623 28.6215 45.0623 27.8304 46.2729 27.2907C47.4835 26.7511 48.7811 26.4735 50.0914 26.4739H64.7142C66.595 26.4739 68.3988 27.2782 69.7287 28.7099C71.0587 30.1417 71.8058 32.0835 71.8058 34.1083Z" fill="#FAA353"/>
<path opacity="0.2" d="M71.8058 34.1083V46.3391C71.8058 47.3131 71.4464 48.2471 70.8067 48.9358C70.167 49.6245 69.2993 50.0114 68.3946 50.0114H59.7027C58.387 50.0114 54.9707 51.1598 54.9707 52.5762V57.4981H40.1143V37.2145C40.1139 35.8039 40.3718 34.4071 40.873 33.1038C41.3743 31.8005 42.1092 30.6164 43.0357 29.6189C43.9623 28.6215 45.0623 27.8304 46.2729 27.2907C47.4835 26.7511 48.7811 26.4735 50.0914 26.4739H64.7142C66.595 26.4739 68.3988 27.2782 69.7287 28.7099C71.0587 30.1417 71.8058 32.0835 71.8058 34.1083Z" fill="#F8F3EE"/>
<path d="M51.7855 39.2791H50.1421C48.5267 39.2791 47.2161 40.9416 47.2161 42.9923C47.2161 45.0431 48.5267 46.7029 50.1421 46.7029H51.7855C53.401 46.7029 54.7116 45.0404 54.7116 42.9923C54.7116 40.9443 53.401 39.2791 51.7855 39.2791Z" fill="#FAA353"/>
<path opacity="0.3" d="M50.1421 46.7028C51.7582 46.7028 53.0682 45.0416 53.0682 42.9923C53.0682 40.943 51.7582 39.2817 50.1421 39.2817C48.5261 39.2817 47.2161 40.943 47.2161 42.9923C47.2161 45.0416 48.5261 46.7028 50.1421 46.7028Z" fill="#F8F3EE"/>
<path opacity="0.4" d="M50.142 46.115C48.872 46.115 47.8052 44.6849 47.8052 42.9923C47.8052 41.2998 48.8745 39.8669 50.142 39.8669C51.4094 39.8669 52.4788 41.297 52.4788 42.9923C52.4788 44.6876 51.4094 46.115 50.142 46.115Z" fill="black"/>
<path d="M50.386 45.7923C49.2506 45.7923 48.2905 44.5099 48.2905 42.9951C48.2905 41.4802 49.2506 40.1951 50.386 40.1951C51.5214 40.1951 52.479 41.4775 52.479 42.9951C52.479 44.5127 51.5214 45.7923 50.386 45.7923Z" fill="#263238"/>
<path opacity="0.5" d="M49.5299 42.7327C49.1997 42.7327 48.9229 42.3608 48.9229 41.9124C48.9229 41.4639 49.1997 41.092 49.5299 41.092C49.8601 41.092 50.137 41.4639 50.137 41.9124C50.137 42.3608 49.8627 42.7327 49.5299 42.7327Z" fill="#F8F3EE"/>
<path d="M42.6261 39.2791H40.9827C39.3673 39.2791 38.0566 40.9416 38.0566 42.9923C38.0566 45.0431 39.3673 46.7029 40.9827 46.7029H42.6261C44.2415 46.7029 45.5496 45.0404 45.5496 42.9923C45.5496 40.9443 44.2415 39.2791 42.6261 39.2791Z" fill="#FAA353"/>
<path opacity="0.3" d="M40.9827 46.7028C42.5988 46.7028 43.9088 45.0416 43.9088 42.9923C43.9088 40.943 42.5988 39.2817 40.9827 39.2817C39.3667 39.2817 38.0566 40.943 38.0566 42.9923C38.0566 45.0416 39.3667 46.7028 40.9827 46.7028Z" fill="#F8F3EE"/>
<path opacity="0.4" d="M40.9829 46.115C39.7129 46.115 38.6436 44.6849 38.6436 42.9923C38.6436 41.2998 39.7154 39.8669 40.9829 39.8669C42.2504 39.8669 43.3197 41.297 43.3197 42.9923C43.3197 44.6876 42.2478 46.115 40.9829 46.115Z" fill="black"/>
<path d="M41.2241 45.7923C40.0887 45.7923 39.1311 44.5099 39.1311 42.9951C39.1311 41.4802 40.0887 40.1951 41.2241 40.1951C42.3594 40.1951 43.3196 41.4775 43.3196 42.9951C43.3196 44.5127 42.3594 45.7923 41.2241 45.7923Z" fill="#263238"/>
<path opacity="0.5" d="M40.3859 42.7327C40.0582 42.7327 39.7788 42.3608 39.7788 41.9124C39.7788 41.4639 40.0582 41.092 40.3859 41.092C40.5675 41.1199 40.7337 41.2174 40.8539 41.3666C40.9742 41.5158 41.0404 41.7066 41.0404 41.9042C41.0404 42.1017 40.9742 42.2925 40.8539 42.4417C40.7337 42.5909 40.5675 42.6884 40.3859 42.7163V42.7327Z" fill="#F8F3EE"/>
<path d="M43.4085 53.7466H46.7994V45.7896H45.0036L41.6152 53.7466H43.4085Z" fill="#263238"/>
<path opacity="0.2" d="M43.4085 53.7466H41.6152L45.0036 45.7896H46.7994L43.4085 53.7466Z" fill="#F8F3EE"/>
<path d="M65.6996 59.0649V59.4942C65.6989 61.6447 64.9049 63.7069 63.4921 65.2272C62.0794 66.7476 60.1635 67.6017 58.1659 67.6017H47.4116C45.414 67.6017 43.4981 66.7476 42.0854 65.2272C40.6726 63.7069 39.8786 61.6447 39.8779 59.4942V56.0571H54.7344V58.622C54.7351 59.302 54.9863 59.9539 55.433 60.4348C55.8796 60.9156 56.4852 61.1861 57.1169 61.1868H63.7209C63.9803 61.1875 64.2373 61.1332 64.4771 61.0269C64.717 60.9206 64.9351 60.7645 65.1188 60.5674C65.3026 60.3704 65.4485 60.1362 65.5481 59.8784C65.6478 59.6206 65.6992 59.3442 65.6996 59.0649Z" fill="#263238"/>
<path opacity="0.2" d="M65.6996 59.0649V59.4942C65.6989 61.6447 64.9049 63.7069 63.4921 65.2272C62.0794 66.7476 60.1635 67.6017 58.1659 67.6017H47.4116C45.414 67.6017 43.4981 66.7476 42.0854 65.2272C40.6726 63.7069 39.8786 61.6447 39.8779 59.4942V56.0571H54.7344V58.622C54.7351 59.302 54.9863 59.9539 55.433 60.4348C55.8796 60.9156 56.4852 61.1861 57.1169 61.1868H63.7209C63.9803 61.1875 64.2373 61.1332 64.4771 61.0269C64.717 60.9206 64.9351 60.7645 65.1188 60.5674C65.3026 60.3704 65.4485 60.1362 65.5481 59.8784C65.6478 59.6206 65.6992 59.3442 65.6996 59.0649Z" fill="#F8F3EE"/>
<path opacity="0.2" d="M42.7354 59.5381C42.6363 59.5386 42.5384 59.5615 42.4481 59.6054C42.3577 59.6493 42.277 59.7132 42.2111 59.7929C42.1452 59.8726 42.0957 59.9663 42.0656 60.068C42.0356 60.1697 42.0258 60.277 42.0369 60.383C42.2414 62.3682 43.1189 64.2024 44.5015 65.5344C45.8841 66.8664 47.6745 67.6025 49.5299 67.6018H50.937C49.0588 67.6022 47.2481 66.8472 45.8601 65.485C44.472 64.1228 43.6068 62.2515 43.4339 60.2381C43.4199 60.0485 43.3404 59.8714 43.2111 59.7418C43.0818 59.6122 42.912 59.5395 42.7354 59.5381Z" fill="black"/>
<path opacity="0.2" d="M46.2583 59.5381C46.1592 59.5386 46.0613 59.5615 45.971 59.6054C45.8807 59.6493 45.7999 59.7132 45.7341 59.7929C45.6682 59.8726 45.6186 59.9663 45.5886 60.068C45.5586 60.1697 45.5488 60.277 45.5598 60.383C45.7643 62.3677 46.6415 64.2016 48.0235 65.5335C49.4056 66.8654 51.1953 67.6018 53.0503 67.6018H54.4574C52.5798 67.6009 50.7701 66.8454 49.3827 65.4834C47.9953 64.1213 47.1302 62.2508 46.9568 60.2381C46.9428 60.0485 46.8634 59.8714 46.734 59.7418C46.6047 59.6122 46.435 59.5395 46.2583 59.5381Z" fill="black"/>
<path opacity="0.2" d="M49.784 59.5381C49.6849 59.5386 49.587 59.5615 49.4966 59.6054C49.4063 59.6493 49.3256 59.7132 49.2597 59.7929C49.1938 59.8726 49.1442 59.9663 49.1142 60.068C49.0842 60.1697 49.0744 60.277 49.0855 60.383C49.2899 62.3677 50.1671 64.2016 51.5491 65.5335C52.9312 66.8654 54.721 67.6018 56.5759 67.6018H57.9831C56.1054 67.6009 54.2957 66.8454 52.9083 65.4834C51.521 64.1213 50.6559 62.2508 50.4825 60.2381C50.4685 60.0485 50.389 59.8714 50.2597 59.7418C50.1304 59.6122 49.9606 59.5395 49.784 59.5381Z" fill="black"/>
<path d="M54.8334 57.4871H39.9388C39.8236 57.4875 39.7095 57.4633 39.6031 57.416C39.4966 57.3688 39.3999 57.2993 39.3184 57.2116C39.237 57.1239 39.1724 57.0198 39.1285 56.9052C39.0846 56.7906 39.0622 56.6677 39.0625 56.5438C39.0622 56.4196 39.0846 56.2967 39.1285 56.1819C39.1724 56.0671 39.2369 55.9628 39.3183 55.8749C39.3997 55.787 39.4964 55.7173 39.6029 55.6697C39.7094 55.6221 39.8235 55.5977 39.9388 55.5977H54.8334C55.0665 55.5977 55.29 55.6973 55.4548 55.8748C55.6196 56.0522 55.7122 56.2928 55.7122 56.5438C55.7122 56.6679 55.6895 56.7908 55.6453 56.9054C55.6011 57.02 55.5363 57.1241 55.4546 57.2118C55.373 57.2994 55.2761 57.3688 55.1695 57.4161C55.0629 57.4633 54.9487 57.4875 54.8334 57.4871Z" fill="#263238"/>
<path opacity="0.4" d="M55.7122 56.544C55.7109 56.7945 55.6179 57.0343 55.4533 57.2114C55.2888 57.3885 55.0661 57.4886 54.8334 57.4901H39.9388C39.765 57.4899 39.5951 57.4342 39.4506 57.3301C39.3062 57.2259 39.1936 57.078 39.1273 56.905C39.061 56.732 39.0438 56.5417 39.0779 56.3582C39.112 56.1747 39.196 56.0062 39.3191 55.8741C39.4003 55.7864 39.4969 55.717 39.6033 55.67C39.7097 55.6231 39.8238 55.5995 39.9388 55.6006H54.8334C55.066 55.6006 55.2892 55.6999 55.4539 55.8768C55.6187 56.0536 55.7115 56.2935 55.7122 56.544Z" fill="#F8F3EE"/>
<path opacity="0.2" d="M55.7124 56.5438C55.711 56.7942 55.618 57.034 55.4535 57.2112C55.2889 57.3883 55.0662 57.4884 54.8335 57.4898H54.737C54.5039 57.4898 54.2804 57.3902 54.1156 57.2127C53.9507 57.0353 53.8582 56.7947 53.8582 56.5438C53.8582 56.2928 53.9507 56.0522 54.1156 55.8748C54.2804 55.6973 54.5039 55.5977 54.737 55.5977H54.8335C54.9489 55.5977 55.0632 55.6221 55.1698 55.6697C55.2765 55.7172 55.3733 55.7869 55.4549 55.8748C55.5366 55.9626 55.6013 56.0669 55.6455 56.1817C55.6896 56.2965 55.7124 56.4195 55.7124 56.5438Z" fill="black"/>
<path d="M69.85 42.6752V47.2334C69.85 47.3967 69.8201 47.5583 69.762 47.7091C69.7038 47.8599 69.6187 47.9969 69.5113 48.1122C69.404 48.2275 69.2766 48.3189 69.1363 48.3811C68.9961 48.4433 68.8459 48.4752 68.6943 48.4748H64.4652C64.1593 48.4748 63.866 48.344 63.6498 48.1112C63.4335 47.8784 63.312 47.5626 63.312 47.2334V42.6752C63.3127 42.3464 63.4345 42.0314 63.6507 41.7992C63.8668 41.5669 64.1598 41.4365 64.4652 41.4365H68.6968C69.0022 41.4365 69.2951 41.5669 69.5113 41.7992C69.7275 42.0314 69.8493 42.3464 69.85 42.6752Z" fill="#FAA353"/>
<path opacity="0.2" d="M69.8499 42.6752V47.2334C69.8499 47.3967 69.82 47.5583 69.7619 47.7091C69.7038 47.8599 69.6186 47.9969 69.5113 48.1122C69.4039 48.2275 69.2765 48.3189 69.1363 48.3811C68.9961 48.4433 68.8459 48.4752 68.6942 48.4748H65.8748C65.569 48.4748 65.2757 48.344 65.0594 48.1112C64.8432 47.8784 64.7217 47.5626 64.7217 47.2334V42.6752C64.7217 42.5123 64.7515 42.351 64.8095 42.2005C64.8675 42.0501 64.9525 41.9134 65.0596 41.7984C65.1667 41.6833 65.2938 41.5921 65.4337 41.53C65.5736 41.4679 65.7235 41.4362 65.8748 41.4365H68.6968C69.0022 41.4365 69.2951 41.5669 69.5113 41.7992C69.7275 42.0314 69.8493 42.3464 69.8499 42.6752Z" fill="black"/>
<path d="M69.0118 43.3449H66.0629C66.0246 43.3453 65.9867 43.3375 65.9513 43.322C65.9158 43.3065 65.8836 43.2836 65.8565 43.2546C65.8293 43.2256 65.8078 43.1911 65.793 43.1531C65.7783 43.1151 65.7708 43.0744 65.7708 43.0332C65.7704 42.9918 65.7777 42.9508 65.7923 42.9124C65.8069 42.8741 65.8284 42.8393 65.8556 42.8101C65.8828 42.7808 65.9151 42.7576 65.9507 42.742C65.9863 42.7263 66.0244 42.7184 66.0629 42.7188H69.0118C69.05 42.7188 69.0879 42.7269 69.1232 42.7427C69.1585 42.7586 69.1905 42.7818 69.2175 42.811C69.2444 42.8403 69.2657 42.875 69.2801 42.9131C69.2945 42.9512 69.3017 42.9921 69.3014 43.0332C69.3014 43.1159 69.2709 43.1952 69.2166 43.2536C69.1622 43.3121 69.0886 43.3449 69.0118 43.3449Z" fill="#263238"/>
<path d="M69.0118 44.6274H66.0629C66.0244 44.6278 65.9863 44.6199 65.9507 44.6042C65.9151 44.5885 65.8828 44.5654 65.8556 44.5361C65.8284 44.5068 65.8069 44.472 65.7923 44.4337C65.7777 44.3954 65.7704 44.3543 65.7708 44.313C65.7708 44.2718 65.7783 44.231 65.793 44.193C65.8078 44.155 65.8293 44.1205 65.8565 44.0916C65.8836 44.0626 65.9158 44.0397 65.9513 44.0242C65.9867 44.0087 66.0246 44.0009 66.0629 44.0012H69.0118C69.0886 44.0012 69.1622 44.0341 69.2166 44.0925C69.2709 44.151 69.3014 44.2303 69.3014 44.313C69.3017 44.3541 69.2945 44.3949 69.2801 44.4331C69.2657 44.4712 69.2444 44.5059 69.2175 44.5351C69.1905 44.5644 69.1585 44.5876 69.1232 44.6034C69.0879 44.6193 69.05 44.6274 69.0118 44.6274Z" fill="#263238"/>
<path d="M69.0118 45.9099H66.0629C65.9854 45.9099 65.9111 45.8767 65.8563 45.8178C65.8015 45.7588 65.7708 45.6788 65.7708 45.5954C65.7708 45.5543 65.7783 45.5135 65.793 45.4755C65.8077 45.4375 65.8293 45.403 65.8565 45.374C65.8836 45.345 65.9158 45.3221 65.9513 45.3066C65.9867 45.2911 66.0246 45.2833 66.0629 45.2837H69.0118C69.0886 45.2837 69.1622 45.3165 69.2165 45.375C69.2708 45.4335 69.3014 45.5127 69.3014 45.5954C69.3014 45.6783 69.2709 45.7579 69.2167 45.8168C69.1625 45.8757 69.0888 45.9092 69.0118 45.9099Z" fill="#263238"/>
<path d="M69.0118 47.1923H66.0629C65.9854 47.1923 65.9111 47.1592 65.8563 47.1002C65.8015 47.0413 65.7708 46.9613 65.7708 46.8779C65.7708 46.8367 65.7783 46.796 65.793 46.758C65.8077 46.72 65.8293 46.6855 65.8565 46.6565C65.8836 46.6275 65.9158 46.6046 65.9513 46.5891C65.9867 46.5736 66.0246 46.5658 66.0629 46.5662H69.0118C69.0886 46.5662 69.1622 46.599 69.2165 46.6575C69.2708 46.7159 69.3014 46.7952 69.3014 46.8779C69.3014 46.9608 69.2709 47.0404 69.2167 47.0993C69.1625 47.1582 69.0888 47.1916 69.0118 47.1923Z" fill="#263238"/>
<path d="M72.7454 35.8092V37.0424C72.7454 37.3108 72.6464 37.5681 72.4701 37.7578C72.2939 37.9476 72.0549 38.0542 71.8056 38.0542V35.1065C71.8056 33.0157 71.0341 31.0106 69.6608 29.5322C68.2875 28.0538 66.4249 27.2233 64.4828 27.2233H58.6738C57.6767 27.2233 56.6894 27.4349 55.7684 27.8461C54.8474 28.2573 54.0107 28.8599 53.3063 29.6196C52.6019 30.3792 52.0435 31.2809 51.663 32.2731C51.2826 33.2653 51.0877 34.3284 51.0894 35.4018C51.0894 35.9769 50.8772 36.5284 50.4994 36.9351C50.1217 37.3417 49.6094 37.5702 49.0751 37.5702H41.9631C41.5325 37.5695 41.1196 37.3848 40.8153 37.0566C40.511 36.7285 40.3401 36.2838 40.3401 35.8202C40.3408 32.9721 41.3922 30.2408 43.2632 28.2272C45.1342 26.2135 47.6716 25.0823 50.3172 25.0823H62.7632C65.4078 25.0815 67.9445 26.2109 69.8162 28.2222C71.6878 30.2335 72.7414 32.9623 72.7454 35.8092Z" fill="#FAA353"/>
<path opacity="0.4" d="M68.8188 35.4783C69.4513 35.4783 69.9872 36.1947 69.9872 37.0396C69.9872 37.8845 69.4513 38.6037 68.8188 38.6037C68.1863 38.6037 67.6504 37.8873 67.6504 37.0396C67.6504 36.1919 68.1863 35.4783 68.8188 35.4783Z" fill="black"/>
<path d="M68.6969 35.6423C69.2633 35.6423 69.7433 36.2822 69.7433 37.0396C69.7433 37.797 69.2633 38.4396 68.6969 38.4396C68.1304 38.4396 67.6504 37.7998 67.6504 37.0396C67.6504 36.2794 68.1304 35.6423 68.6969 35.6423Z" fill="#263238"/>
<path opacity="0.4" d="M65.5497 35.4783C66.1822 35.4783 66.7182 36.1947 66.7182 37.0396C66.7182 37.8845 66.1822 38.6037 65.5497 38.6037C64.9173 38.6037 64.3813 37.8873 64.3813 37.0396C64.3813 36.1919 64.9147 35.4783 65.5497 35.4783Z" fill="black"/>
<path d="M65.4278 35.6423C65.9942 35.6423 66.4743 36.2822 66.4743 37.0396C66.4743 37.797 65.9942 38.4396 65.4278 38.4396C64.8614 38.4396 64.3813 37.7998 64.3813 37.0396C64.3813 36.2794 64.8589 35.6423 65.4278 35.6423Z" fill="#263238"/>
<path opacity="0.4" d="M62.2783 35.4783C62.9133 35.4783 63.4467 36.1947 63.4467 37.0396C63.4467 37.8845 62.9133 38.6037 62.2783 38.6037C61.6433 38.6037 61.1099 37.8873 61.1099 37.0396C61.1099 36.1919 61.6458 35.4783 62.2783 35.4783Z" fill="black"/>
<path d="M62.1563 35.6423C62.7253 35.6423 63.2054 36.2822 63.2054 37.0396C63.2054 37.797 62.7253 38.4396 62.1563 38.4396C61.5874 38.4396 61.1099 37.7998 61.1099 37.0396C61.1099 36.2794 61.5899 35.6423 62.1563 35.6423Z" fill="#263238"/>
<path opacity="0.4" d="M67.183 31.4341C67.818 31.4341 68.3515 32.1478 68.3515 32.9954C68.3515 33.8431 67.818 34.5567 67.183 34.5567C66.548 34.5567 66.0146 33.8403 66.0146 32.9954C66.0146 32.1505 66.548 31.4341 67.183 31.4341Z" fill="black"/>
<path d="M67.056 31.5955C67.625 31.5955 68.105 32.238 68.105 32.9955C68.105 33.7529 67.625 34.3955 67.056 34.3955C66.487 34.3955 66.0095 33.7529 66.0095 32.9955C66.0095 32.238 66.4947 31.5955 67.056 31.5955Z" fill="#263238"/>
<path opacity="0.4" d="M63.914 31.4341C64.5465 31.4341 65.0824 32.1478 65.0824 32.9954C65.0824 33.8431 64.5465 34.5567 63.914 34.5567C63.2815 34.5567 62.7456 33.8403 62.7456 32.9954C62.7456 32.1505 63.2815 31.4341 63.914 31.4341Z" fill="black"/>
<path d="M63.7921 31.5955C64.3586 31.5955 64.8386 32.238 64.8386 32.9955C64.8386 33.7529 64.3586 34.3955 63.7921 34.3955C63.2257 34.3955 62.738 33.7611 62.738 32.9955C62.738 32.2298 63.2257 31.5955 63.7921 31.5955Z" fill="#263238"/>
</svg>
