<svg width="85" height="75" viewBox="0 0 85 75" fill="none" xmlns="http://www.w3.org/2000/svg">
<path d="M42.4281 5.42165C43.5494 5.41535 43.1777 6.96142 43.1778 7.71423L43.1767 10.8567C46.3003 13.9505 53.4613 15.5834 57.9625 14.1845C58.6467 13.3692 61.0835 9.56146 61.6693 9.35187C62.1445 9.18192 62.6586 9.612 62.4614 10.0312C62.2598 10.4595 61.889 10.8671 61.6026 11.2585L59.9504 13.5589C59.6079 14.0381 59.2183 14.4992 58.9619 15.0217C59.9859 19.7686 64.4031 22.9906 69.4779 24.382C70.7089 24.0224 72.8322 23.0342 74.0669 22.4985C74.6414 22.2493 75.2233 21.9474 75.8366 21.7812L75.9113 21.8076C77.679 22.4234 75.0943 23.3115 74.5892 23.5227L71.8328 24.6873C69.8461 25.5225 69.8961 25.7582 69.5675 27.8867C69.016 31.4593 70.3959 34.1508 72.7387 36.877L77.2142 36.8764C77.9 36.8758 78.6381 36.8143 79.3163 36.876C79.8298 36.9227 80.0647 37.5294 79.6877 37.8488C79.3216 38.159 77.7229 37.9881 77.2316 37.9876L72.7387 37.9863C72.1051 38.5309 71.613 39.3047 71.1931 39.9902C69.2483 43.1645 69.0744 46.1071 70.2123 49.4623C71.2997 49.9188 72.3682 50.4133 73.4503 50.88C73.9822 51.1094 76.4562 51.8777 76.3172 52.5512C76.1117 53.5472 74.877 52.7461 74.3328 52.5023L71.7211 51.3338C71.0034 51.0155 70.2694 50.608 69.4779 50.4734C68.1795 50.5232 64.972 52.1915 63.8723 52.9232C61.3936 54.5724 59.3957 57.1377 58.9619 59.879C59.9585 61.5246 61.3081 63.0778 62.2419 64.6516C62.4999 65.0862 62.1665 65.5277 61.5878 65.4933C61.063 65.4619 60.6614 64.5786 60.4337 64.2444C59.8636 63.4081 58.6063 61.4036 57.9625 60.7686C52.8192 59.2132 46.8518 60.4607 43.1767 64.0396L43.175 67.4483C43.1752 67.9869 43.21 68.5355 43.1767 69.0723C43.1162 69.1693 43.0385 69.2543 42.9625 69.3419C41.533 69.9977 41.8492 67.8354 41.8492 67.263L41.8504 63.9095C38.6217 61.2489 35.5368 60.0691 31.1782 60.0416C30.2454 60.0357 28.0168 60.174 27.2289 60.6009C26.6739 60.9017 26.3321 61.6538 25.9995 62.1241L24.5404 64.144C24.3545 64.4033 23.0375 66.6386 22.5134 65.2047C22.3512 64.7613 23.0493 64.1159 23.2953 63.7736L24.9583 61.4418C25.3313 60.9278 25.7588 60.44 26.0407 59.879C24.6548 54.675 21.0302 51.9971 15.5443 50.4734C13.9838 50.9242 12.3756 51.7626 10.8872 52.3844C10.2407 52.6545 9.56218 53.1318 8.84894 52.8263C8.59309 52.3592 8.60742 52.1272 9.12317 51.8604C10.3519 51.225 13.4297 49.9293 14.7803 49.4623C16.4577 45.9567 15.1836 40.9712 12.6035 37.9863L7.79637 37.9865C7.10051 37.987 6.3562 38.0492 5.66584 37.9951C5.08024 37.9494 4.84923 37.3848 5.29632 37.0132C5.66742 36.7049 7.2692 36.8789 7.77998 36.8779L12.6035 36.877C14.9373 33.7727 16.2995 28.9892 14.7803 25.3645C12.9421 24.5796 11.1112 23.7455 9.25008 23.0092C8.82719 22.8419 8.47439 22.5157 8.76477 22.0897C9.28644 21.3244 14.4757 23.9883 15.2255 24.382C20.9631 22.4654 24.5686 20.5356 25.8792 14.8545C25.5159 14.2903 22.5079 10.23 22.5461 9.89307C22.5786 9.60535 22.9807 9.30316 23.3147 9.37282C23.8553 9.48551 26.5285 13.6103 26.9452 14.1845C32.8321 15.4831 37.5164 14.3883 41.8504 10.8567C41.8557 10.2384 41.7634 5.92318 41.9027 5.69473C42.0111 5.51705 42.2231 5.47036 42.4281 5.42165ZM55.2626 36.5087C54.4076 36.5354 53.5472 36.8361 52.7081 36.9863C52.0683 37.2121 51.3727 37.3806 50.703 37.5234C50.7887 38.0874 50.839 38.6631 50.8788 39.231C50.9095 39.8216 50.7943 40.407 50.703 40.9901C52.1282 41.272 53.4235 41.5468 54.8177 41.9075C55.4298 42.014 55.6994 42.4717 56.1536 42.7851C56.4511 43.1141 56.7503 43.4414 57.0544 43.7657C57.5058 43.8653 57.9248 44.0902 58.3354 44.2788L60.2522 45.1662C60.6877 45.3725 61.1206 45.6099 61.581 45.7677C61.4673 44.9326 61.3722 44.1077 61.413 43.2653L61.4731 43.3057C61.9064 43.6037 62.083 43.9985 62.7061 43.9846C63.5222 43.6911 63.2546 43.2179 62.8499 42.7129C62.5811 42.2354 62.1581 41.8255 61.8328 41.3754C60.4775 40.0957 59.6796 39.196 58.1397 37.9863C56.9923 37.1881 56.5592 36.969 55.2626 36.5087ZM29.6159 36.5087C28.5519 36.9265 27.616 37.7386 26.9452 37.9863C25.6275 38.9966 24.1309 40.0399 23.2256 41.3754C22.8173 41.6903 22.5212 42.0789 22.2043 42.4635C21.7097 43.1689 21.7128 43.4644 22.4614 43.9846C23.0639 43.9368 23.3511 43.6857 23.7037 43.2653C23.7703 44.0219 23.6833 44.7839 23.7037 45.5423L26.5816 44.2595C26.9224 44.1061 27.2828 43.8734 27.6394 43.7657C27.9217 43.6906 28.6299 42.7204 28.7952 42.4635C29.1982 42.1613 29.4661 41.9632 30.0067 41.9075C30.8271 41.5506 33.5219 41.1091 34.5241 40.9901C34.3637 40.4937 34.2648 40.0211 34.2346 39.5055L34.2309 39.4355L34.1642 39.4128C34.2985 39.2937 34.4544 37.9752 34.5241 37.6958C33.9396 37.6087 32.3352 37.1323 31.8288 36.877C31.0652 36.8576 30.4222 36.5262 29.6159 36.5087ZM51.4858 54.5675C49.0638 54.7419 44.6828 55.9385 43.1767 57.808C43.0958 59.2112 43.1382 60.9638 43.1767 62.3723C44.5192 61.3944 45.6355 60.9559 46.9286 60.141C47.7122 60.053 48.4033 59.6745 49.1551 59.4851C51.7112 58.841 54.4822 58.7569 57.0544 59.385C56.3754 58.3583 54.61 55.5228 53.7381 54.7015C53.0954 54.4957 52.1714 54.5297 51.4858 54.5675ZM26.9452 16.17C26.7166 16.5376 26.6179 16.9432 26.4682 17.3374C24.9832 21.248 21.0591 23.6184 16.8831 25.072C19.0325 25.7462 20.8872 26.9591 22.8909 27.6341C24.4989 26.9637 25.4719 25.9932 26.6953 24.9187C26.2544 23.6149 27.3685 22.7311 28.2459 23.7089C29.0721 22.4716 29.2853 21.6392 29.839 20.3434C28.6755 18.9619 27.9492 17.5497 26.9452 16.17ZM55.2626 20.2195C55.6695 21.3587 56.0326 22.9673 57.0544 23.798C57.4849 23.216 58.5489 23.2879 58.6435 24.0567C58.6905 24.4399 58.4076 24.986 58.2962 25.3645C59.3733 26.2926 60.6804 27.0883 62.0558 27.6341C63.2719 27.2336 66.798 25.7424 67.8732 25.072C67.368 24.9879 66.9035 24.8076 66.4443 24.6075C62.1388 22.7319 59.4706 20.2914 57.9625 16.3248C57.2785 17.215 55.6597 19.3311 55.2626 20.2195ZM32.6674 54.7015C32.127 54.7016 31.5991 54.7585 31.0663 54.8342C30.1338 56.3103 29.0109 57.6898 28.1293 59.1908C32.0652 58.6898 35.5021 58.6771 39.0799 60.6293C40.063 61.1673 40.9209 61.7783 41.8504 62.3723C41.9269 60.9555 41.8849 59.2317 41.8504 57.808C40.5792 56.1347 35.1719 54.2959 32.6674 54.7015ZM65.2485 37.9863C63.5642 39.8056 63.6109 40.7509 62.8688 42.6646L62.8499 42.7129C63.2546 43.2179 63.5222 43.6911 62.7061 43.9846C62.7222 44.7791 62.8389 45.652 63.1801 46.3892C64.7476 47.2343 66.9304 48.0534 68.6285 48.8411C67.5715 44.9368 68.5319 41.3035 71.0681 37.9863H65.2485ZM62.2346 47.2277C61.5153 47.5321 60.8192 47.909 60.0728 48.1573C60.3175 48.67 60.9883 49.7294 60.7416 50.2544C60.5781 50.6024 60.0221 50.5993 59.699 50.4471C59.1935 50.2091 59.0572 49.5498 58.7491 49.1493C57.2467 50.7883 55.4796 51.6789 55.031 54.1626C55.5918 55.4601 57.199 57.0731 57.9625 58.5328C59.1338 54.4939 63.4251 50.8783 67.8732 49.7136C66.4501 48.8729 63.8516 47.9617 62.2346 47.2277ZM22.8909 47.2277C21.3096 47.6644 18.8034 49.0359 17.219 49.7136C21.812 51.1708 25.6112 54.3766 27.0536 58.5328C27.622 57.4282 29.3353 55.148 30.1564 54.1626C28.9485 51.5886 28.1624 51.1172 26.2949 49.283C25.9648 49.8067 24.9296 51.3316 24.2665 49.9951C24.0191 49.4966 24.603 48.6278 24.8291 48.1573C24.2006 47.8284 23.4929 47.5853 22.8909 47.2277ZM14.2041 37.9863C14.498 38.6219 14.9925 39.1657 15.3108 39.7909C16.7241 42.5664 17.3662 45.6962 16.4287 48.6789C17.4964 48.4276 21.1336 46.7094 22.2043 46.1721C22.4227 45.4402 22.4647 44.7384 22.4614 43.9846C21.7128 43.4644 21.7097 43.1689 22.2043 42.4635C21.4305 40.5551 21.3946 39.8018 19.813 37.9863H14.2041ZM16.4287 26.105C16.9646 29.2419 16.78 32.108 15.3115 35.0446C14.9926 35.6823 14.5264 36.2483 14.2041 36.877C16.026 36.9173 17.8598 36.8763 19.6833 36.877C20.1975 36.8597 20.3738 36.2673 20.5839 35.9194C22.0426 33.5058 22.3054 31.1407 21.8863 28.4994C20.9271 27.9435 17.6463 26.517 16.4287 26.105ZM68.6285 26.105C67.3935 26.6139 64.1971 27.8241 63.1801 28.4994C62.4154 30.6778 62.9453 33.1986 64.1255 35.187C64.4106 35.6672 65.0434 36.8872 65.7319 36.877H71.0681C68.881 34.0684 67.6495 30.8846 68.3654 27.4484C68.4529 27.0284 68.667 26.5402 68.688 26.1252L68.6285 26.105ZM43.1767 12.4044C43.1576 13.3954 43.1743 14.3886 43.1767 15.3798C43.7079 15.7911 44.3954 16.1106 44.9653 16.4897C46.0461 17.2582 47.134 18.0699 48.0237 19.0167C48.3021 19.3132 48.5886 19.8221 48.9864 19.9925C50.0632 20.1972 52.5908 20.3623 53.623 20.0563C54.1764 19.8923 56.5972 16.1445 56.9193 15.6001C52.5791 15.9784 49.0915 15.7668 45.1796 13.7102C44.4819 13.3435 43.9217 12.8094 43.2348 12.4355L43.1767 12.4044ZM41.8504 12.4044C38.4253 14.7047 35.7903 15.8782 31.2247 15.8054C30.085 15.7872 28.9569 15.5448 27.8192 15.6001C28.5824 16.3002 29.2241 17.4318 29.839 18.2663C30.2695 18.8262 30.6795 19.4083 31.0663 19.9925C32.8953 20.2882 34.1373 20.1032 35.8277 20.2195C37.2396 18.4667 39.6341 16.329 41.8504 15.3798C41.8504 15.1021 41.9025 12.4687 41.8504 12.4044ZM56.1536 31.4203V31.6305L56.0512 32.0492C55.624 33.8011 55.8105 35.3659 56.9193 36.877H63.7563C61.8265 33.8818 61.3858 32.4313 61.6902 29.1086C60.0052 29.5648 57.8563 30.767 56.1536 31.4203ZM23.2256 29.1086C23.7477 32.569 22.9445 33.9845 21.4997 36.877H28.2459C28.8719 35.4029 29.2976 33.859 29.1724 32.2711C29.0228 31.944 28.8618 31.5447 28.5841 31.2841C28.1529 31.1522 27.7336 30.9334 27.321 30.7582L24.7544 29.6694C24.2587 29.458 23.7668 29.2142 23.2256 29.1086ZM26.6953 24.9187C26.8256 25.3698 26.953 25.8217 27.0536 26.2788C27.4877 27.4617 27.7478 28.7141 28.1293 29.9144C28.2703 30.3741 28.4247 30.8291 28.5841 31.2841C28.8618 31.5447 29.0228 31.944 29.1724 32.2711C29.71 32.5202 30.1428 32.9086 30.6669 33.1812C30.1891 34.0774 30.4142 35.5696 29.6159 36.5087C30.4222 36.5262 31.0652 36.8576 31.8288 36.877C32.3352 37.1323 33.9396 37.6087 34.5241 37.6958C34.6181 37.1713 34.8111 36.6804 35.0945 36.2133C35.1727 36.1154 36.1511 34.6829 36.1597 34.6548C35.5219 34.4467 34.7906 33.8579 34.2412 33.4966L32.0938 32.0973C31.6764 31.9085 31.2599 31.5671 30.9197 31.2841C29.7565 30.7 28.9682 26.3193 28.5942 25.104L28.5841 25.072C28.4541 24.6208 28.3342 24.1679 28.2459 23.7089C27.3685 22.7311 26.2544 23.6149 26.6953 24.9187ZM34.9871 49.283C34.0202 50.5391 32.7979 52.174 31.9789 53.4989C35.8831 53.3187 38.675 54.2982 41.8504 56.2056C41.8814 55.599 41.854 54.9896 41.8514 54.3823L41.8504 51.5068C40.932 50.7488 39.6656 50.1215 38.4577 49.8025C38.0435 51.0007 37.2355 50.1496 37.1496 49.283C36.4281 49.2697 35.7086 49.2838 34.9871 49.283ZM57.0544 23.798C56.9412 24.2259 56.7514 24.6505 56.6062 25.072C56.1805 26.4036 55.7203 27.7257 55.2508 29.0458C54.8821 30.0826 54.9568 30.6208 53.9519 31.2841C53.5922 31.5719 53.2339 31.8803 52.8126 32.0973C51.973 32.8246 50.2405 34.1345 49.2191 34.6548C49.2479 34.8851 49.9866 36.0001 50.1772 36.2133C50.5171 36.3337 50.7724 37.0482 50.6399 37.3371L50.703 37.5234C51.3727 37.3806 52.0683 37.2121 52.7081 36.9863C53.5472 36.8361 54.4076 36.5354 55.2626 36.5087C54.6489 35.3779 54.5409 34.2551 54.5541 33.0165C55.1167 32.4927 55.5922 32.2727 56.1536 31.6305V31.4203C56.3206 30.9193 56.5637 30.4137 56.7513 29.9144C57.0914 28.8066 57.4758 27.6684 57.9625 26.604C58.0147 26.1808 58.1636 25.7723 58.2962 25.3645C58.4076 24.986 58.6905 24.4399 58.6435 24.0567C58.5489 23.2879 57.4849 23.216 57.0544 23.798ZM47.8535 49.1493C47.7579 50.2066 46.8629 51.0124 46.4 49.5865C45.5329 50.2772 44.0712 50.4432 43.1767 51.6186V56.2056C45.7992 54.1125 49.3591 53.3475 52.8126 53.3579C52.271 52.2318 50.6887 50.3642 49.9289 49.1493C49.2623 49.049 48.5272 49.11 47.8535 49.1493ZM29.6159 44.3811C28.6799 45.3033 27.496 47.053 26.8268 48.1573C29.0419 49.4789 29.5949 51.2122 30.9197 52.8263C31.8602 51.4296 32.8874 50.0823 33.8182 48.6789C32.8947 46.812 31.613 45.4104 29.6159 44.3811ZM51.796 25.072C51.496 25.439 51.8374 27.9807 51.6141 29.1086C51.5741 29.31 51.5437 29.5176 51.4858 29.7154C52.3045 30.2111 53.1776 30.7371 53.9519 31.2841C54.9568 30.6208 54.8821 30.0826 55.2508 29.0458C55.7203 27.7257 56.1805 26.4036 56.6062 25.072C55.4246 24.0242 54.9679 22.8083 54.2411 21.5559C53.5669 22.3386 52.2896 24.1963 51.796 25.072ZM55.031 44.3811C53.3098 45.4567 51.6745 47.1272 51.4858 49.0627C51.7461 49.6409 53.669 52.3627 54.0937 52.8263C55.2605 50.9344 55.9941 49.5258 58.1397 48.1573C57.6913 47.206 55.9639 44.9861 55.031 44.3811ZM30.6669 21.5559C30.2786 22.6616 29.5577 24.3031 28.5841 25.072L28.5942 25.104C28.9682 26.3193 29.7565 30.7 30.9197 31.2841C31.5201 30.8201 32.7673 30.1624 33.4767 29.7154C33.1128 28.4758 33.0491 26.5951 33.4767 25.3645C33.4692 25.3576 33.4618 25.3509 33.4546 25.344L33.4188 25.3093C32.4537 24.3842 31.6157 22.6577 30.6669 21.5559ZM34.9871 42.4635C33.9289 42.8568 32.761 42.9675 31.6651 43.2653C31.4585 43.427 31.2548 43.5871 31.0663 43.7657C32.5334 44.3676 33.7216 46.2171 34.636 47.3519C35.0265 46.7522 35.9832 45.2801 36.6147 44.9323C36.0098 44.0087 35.5743 43.4576 34.9871 42.4635ZM50.1772 42.7129C49.7789 43.0229 48.9313 44.3708 48.4277 44.9323C48.8602 45.2634 50.009 47.1363 50.3896 47.693C51.7937 45.8218 51.3969 45.2222 54.0937 43.5283C52.8489 43.1339 51.4723 42.9435 50.1772 42.7129ZM58.1397 37.9863C59.6796 39.196 60.4775 40.0957 61.8328 41.3754C62.2384 40.1395 62.809 38.9765 63.7563 37.9863C63.4711 37.9577 63.159 37.9816 62.8709 37.9828L61.1288 37.9857C60.146 37.9868 59.1135 37.9107 58.1397 37.9863ZM21.4997 37.9863C22.0411 39.1576 22.693 40.0639 23.2256 41.3754C24.1309 40.0399 25.6275 38.9966 26.9452 37.9863C25.1309 38.0111 23.3144 37.9853 21.4997 37.9863ZM27.0536 26.2788C26.3103 27.1097 25.2222 27.6193 24.2932 28.2659C25.0767 28.4653 27.453 29.5135 28.1293 29.9144C27.7478 28.7141 27.4877 27.4617 27.0536 26.2788ZM57.9625 26.604C57.4758 27.6684 57.0914 28.8066 56.7513 29.9144C58.0447 29.3716 59.3219 28.7577 60.6392 28.2659C59.6879 27.762 58.8069 27.2453 57.9625 26.604ZM39.7186 47.1003C39.2547 47.6089 38.9755 48.0508 38.7729 48.6789C39.8957 48.935 40.926 49.5107 41.8504 50.1136C41.863 49.4297 41.8366 48.7453 41.8504 48.0611C41.1363 47.7611 40.4563 47.347 39.7186 47.1003ZM51.1469 30.9986C50.5996 32.1407 49.8274 33.4425 48.796 34.3139C48.9363 34.4284 49.0765 34.5426 49.2191 34.6548C50.2405 34.1345 51.973 32.8246 52.8126 32.0973C52.3192 31.6755 51.7114 31.3425 51.1469 30.9986ZM43.1767 48.1573C43.2112 48.7547 43.2338 49.3985 43.1767 49.9947C43.9722 49.5432 45.297 48.7147 46.1777 48.5251C46.0192 47.9828 45.8301 47.5971 45.3307 47.2277C45.0176 47.2393 43.6309 47.9985 43.1767 48.1573ZM32.0938 32.0973L34.2412 33.4966C34.7906 33.8579 35.5219 34.4467 36.1597 34.6548C35.6673 33.9943 35.1191 33.3615 34.7049 32.6584C34.3871 32.1192 34.1785 31.5142 33.8182 30.9986C33.1963 31.2902 32.6471 31.715 32.0938 32.0973ZM31.9789 21.2174C32.0505 21.4557 33.5825 23.5361 33.8182 23.798C33.9477 23.545 34.0579 23.2892 34.1642 23.0282C34.3903 22.4565 34.7881 21.9218 34.9871 21.3537C33.9688 21.3605 32.9903 21.3234 31.9789 21.2174ZM49.9289 21.3537C49.893 21.5453 50.9255 23.4085 51.1469 23.798C51.6514 22.9744 52.3817 22.1978 52.8126 21.3537C51.8517 21.3596 50.8891 21.3307 49.9289 21.3537ZM35.6057 48.1573C36.1064 48.1557 36.6547 48.1125 37.1496 48.1573C37.3585 47.3768 37.5795 46.7818 38.1861 46.1721C37.9568 45.9814 37.7036 45.8128 37.4566 45.6404C36.933 46.5177 36.167 47.2923 35.6057 48.1573ZM47.4544 45.7677C47.2442 45.8853 47.0789 45.9921 46.9286 46.1721C47.3737 46.6572 47.6144 47.3757 47.8535 47.9566C48.231 47.9489 48.6089 47.9546 48.9864 47.9566C48.5579 47.1915 48.033 46.4516 47.4544 45.7677ZM26.2949 45.6404C25.5802 45.9031 24.8205 46.1921 24.1519 46.5367C24.5417 46.7845 24.9779 46.9561 25.3488 47.2277C25.6303 46.6831 25.9595 46.1604 26.2949 45.6404ZM58.6105 45.6404C58.8811 46.122 59.1427 46.6519 59.4764 47.1003C59.8368 46.8677 60.2562 46.7363 60.6392 46.5367C60.1247 46.3293 59.0444 45.7535 58.6105 45.6404Z" fill="#FB8303"/>
<path d="M46.9287 46.1721C47.3738 46.6571 47.6145 47.3756 47.8536 47.9566C47.8586 48.3492 47.8247 48.759 47.8536 49.1493C47.758 50.2066 46.863 51.0124 46.4001 49.5865C46.3335 49.2317 46.2534 48.8786 46.1778 48.5251C46.0193 47.9828 45.8302 47.5971 45.3308 47.2277C45.6205 46.9246 46.0249 46.7444 46.4001 46.5367C46.5607 46.3949 46.7267 46.266 46.9287 46.1721Z" fill="#191223"/>
<path d="M38.186 46.1721C38.7098 46.3699 39.2437 46.8131 39.7185 47.1002C39.2547 47.6088 38.9755 48.0508 38.7729 48.6789C38.6667 49.0498 38.588 49.4383 38.4576 49.8024C38.0434 51.0007 37.2354 50.1496 37.1496 49.283C37.1084 48.9038 37.1219 48.5371 37.1496 48.1573C37.3585 47.3768 37.5794 46.7818 38.186 46.1721Z" fill="#191223"/>
<path d="M50.703 40.9902C52.1283 41.2721 53.4235 41.5469 54.8177 41.9077C55.4298 42.0142 55.6994 42.4718 56.1536 42.7853C56.4511 43.1143 56.7503 43.4415 57.0544 43.7658C57.5543 44.402 58.0832 45.0219 58.6105 45.6405C58.8811 46.1222 59.1428 46.652 59.4764 47.1004C59.6672 47.453 59.8438 47.823 60.0728 48.1574C60.3175 48.6701 60.9884 49.7295 60.7417 50.2545C60.5781 50.6025 60.0221 50.5995 59.6991 50.4473C59.1936 50.2092 59.0573 49.5499 58.7491 49.1494C58.6417 48.8069 58.3615 48.4497 58.1397 48.1574C57.6913 47.2062 55.9639 44.9862 55.031 44.3812C54.8204 44.0015 54.5561 43.6817 54.0937 43.5284C52.8489 43.134 51.4723 42.9436 50.1772 42.713C50.1809 42.3417 50.5729 41.4124 50.703 40.9902Z" fill="#191223"/>
<path d="M30.0066 41.9077C30.8271 41.5507 33.5218 41.1092 34.5241 40.9902C34.5219 41.5359 34.7713 41.9666 34.9871 42.4636C33.9289 42.8569 32.761 42.9676 31.6651 43.2654C31.2371 43.2773 30.8357 43.4307 30.4276 43.5284C30.044 43.722 29.836 44.0564 29.6158 44.3812C28.6798 45.3035 27.496 47.0531 26.8268 48.1574C26.6187 48.5107 26.3714 48.8865 26.2949 49.2832C25.9648 49.8068 24.9295 51.3317 24.2665 49.9952C24.0191 49.4967 24.603 48.6279 24.8291 48.1574C24.9923 47.8435 25.1729 47.5365 25.3487 47.2278C25.6303 46.6832 25.9595 46.1605 26.2949 45.6405C26.6012 45.3776 27.4492 44.1461 27.6394 43.7658C27.9216 43.6907 28.6299 42.7205 28.7952 42.4636C29.1981 42.1614 29.4661 41.9633 30.0066 41.9077Z" fill="#191223"/>
<path d="M57.0545 23.7981C57.485 23.2161 58.549 23.288 58.6436 24.0568C58.6906 24.44 58.4077 24.9861 58.2963 25.3646C58.1637 25.7724 58.0147 26.181 57.9626 26.6042C57.4759 27.6685 57.0915 28.8067 56.7514 29.9146C56.5638 30.4138 56.3207 30.9194 56.1537 31.4204V31.6306C55.5922 32.2728 55.1168 32.4928 54.5542 33.0167C54.541 34.2552 54.6489 35.378 55.2627 36.5088C54.4077 36.5355 53.5473 36.8362 52.7082 36.9864C52.0684 37.2123 51.3728 37.3807 50.7031 37.5235L50.64 37.3372C50.7725 37.0484 50.5171 36.3338 50.1773 36.2134C49.9867 36.0003 49.248 34.8852 49.2192 34.6549C50.2406 34.1346 51.9731 32.8248 52.8126 32.0975C53.234 31.8804 53.5923 31.572 53.952 31.2842C54.9569 30.6209 54.8822 30.0827 55.2509 29.0459C55.7204 27.7258 56.1806 26.4038 56.6063 25.0721C56.7515 24.6506 56.9413 24.226 57.0545 23.7981ZM54.5542 33.0167C53.6427 33.5727 52.3626 34.5662 51.4859 35.2254C51.0155 35.5201 50.5973 35.8664 50.1773 36.2134C50.5171 36.3338 50.7725 37.0484 50.64 37.3372L50.7031 37.5235C51.3728 37.3807 52.0684 37.2123 52.7082 36.9864C53.5473 36.8362 54.4077 36.5355 55.2627 36.5088C54.6489 35.378 54.541 34.2552 54.5542 33.0167Z" fill="url(#paint0_linear_66_9027)"/>
<path d="M51.4858 35.2253C51.6201 36.0697 51.5876 36.8685 52.7082 36.9864C52.0683 37.2123 51.3727 37.3807 50.703 37.5235L50.6399 37.3372C50.7724 37.0483 50.5171 36.3338 50.1772 36.2134C50.5973 35.8664 51.0155 35.5201 51.4858 35.2253Z" fill="#FB8303"/>
<path d="M26.6953 24.9187C26.2544 23.6148 27.3685 22.7311 28.2459 23.7088C28.3342 24.1678 28.4541 24.6207 28.5841 25.0719L28.5942 25.104C28.9683 26.3192 29.7565 30.7 30.9198 31.284C31.2599 31.567 31.6765 31.9084 32.0938 32.0973L34.2412 33.4965C34.7906 33.8579 35.5219 34.4466 36.1597 34.6547C36.1511 34.6829 35.1728 36.1153 35.0946 36.2132C34.8112 36.6803 34.6181 37.1712 34.5241 37.6958C33.9396 37.6086 32.3352 37.1322 31.8289 36.8769C31.0652 36.8576 30.4222 36.5261 29.6159 36.5086C30.4142 35.5695 30.1891 34.0773 30.6669 33.1811C30.1428 32.9085 29.71 32.5202 29.1724 32.271C29.0229 31.9439 28.8618 31.5446 28.5841 31.284C28.4247 30.829 28.2703 30.374 28.1294 29.9144C27.7479 28.7141 27.4877 27.4616 27.0536 26.2788C26.953 25.8216 26.8257 25.3697 26.6953 24.9187ZM29.6159 36.5086C30.4222 36.5261 31.0652 36.8576 31.8289 36.8769C32.3352 37.1322 33.9396 37.6086 34.5241 37.6958C34.6181 37.1712 34.8112 36.6803 35.0946 36.2132C34.7866 35.9012 34.3664 35.6768 33.9748 35.4559C32.9272 34.6543 31.6448 34.0389 30.6669 33.1811C30.1891 34.0773 30.4142 35.5695 29.6159 36.5086Z" fill="#191223"/>
<path d="M33.9748 35.4561C34.3664 35.677 34.7866 35.9014 35.0946 36.2134C34.8112 36.6805 34.6181 37.1714 34.5241 37.6959C33.9396 37.6088 32.3352 37.1324 31.8289 36.8771C32.4599 36.8686 32.7926 36.9634 33.4767 36.8771C33.7307 36.4214 33.824 35.9422 33.9748 35.4561Z" fill="#FB8303"/>
<path d="M29.6159 36.5088C30.4223 36.5262 31.0652 36.8577 31.8289 36.877C32.3352 37.1324 33.9396 37.6087 34.5242 37.6959C34.4544 37.9752 34.2985 39.2938 34.1642 39.4128L34.231 39.4355L34.2346 39.5056C34.2648 40.0212 34.3638 40.4937 34.5242 40.9902C33.5219 41.1091 30.8272 41.5506 30.0067 41.9076C29.4662 41.9633 29.1982 42.1613 28.7953 42.4635C28.6299 42.7205 27.9217 43.6906 27.6395 43.7658C27.2829 43.8734 26.9225 44.1062 26.5816 44.2596L23.7038 45.5423C23.6833 44.784 23.7703 44.022 23.7038 43.2654C23.3511 43.6858 23.0639 43.9369 22.4615 43.9846C21.7129 43.4645 21.7098 43.169 22.2043 42.4635C22.5212 42.079 22.8174 41.6904 23.2256 41.3754C24.1309 40.0399 25.6276 38.9967 26.9452 37.9864C27.6161 37.7387 28.5519 36.9266 29.6159 36.5088ZM28.5841 38.986C27.0543 39.7101 24.6826 41.9879 23.7038 43.2654C23.7703 44.022 23.6833 44.784 23.7038 45.5423L26.5816 44.2596C26.9225 44.1062 27.2829 43.8734 27.6395 43.7658C27.9217 43.6906 28.6299 42.7205 28.7953 42.4635C28.7111 41.7266 28.539 39.5781 28.5841 38.986ZM29.6159 38.2952C29.2391 38.483 28.839 38.6649 28.5841 38.986C28.539 39.5781 28.7111 41.7266 28.7953 42.4635C29.1982 42.1613 29.4662 41.9633 30.0067 41.9076C30.8272 41.5506 33.5219 41.1091 34.5242 40.9902C34.3638 40.4937 34.2648 40.0212 34.2346 39.5056L34.231 39.4355L34.1642 39.4128C33.6672 39.2202 30.0084 38.0122 29.6159 38.2952Z" fill="#191223"/>
<path d="M29.6159 38.2952C29.7875 39.6058 30.0274 40.538 30.0067 41.9076C29.4661 41.9633 29.1982 42.1613 28.7953 42.4635C28.7111 41.7266 28.5389 39.5781 28.5841 38.986C28.8389 38.6649 29.239 38.483 29.6159 38.2952Z" fill="#FB8303"/>
<path d="M55.2625 36.5088C56.5591 36.969 56.9922 37.1882 58.1395 37.9864C59.6795 39.196 60.4774 40.0958 61.8327 41.3754C62.158 41.8256 62.581 42.2354 62.8497 42.713C63.2545 43.2179 63.5221 43.6912 62.706 43.9846C62.0829 43.9985 61.9063 43.6038 61.473 43.3058L61.4129 43.2654C61.372 44.1078 61.4672 44.9327 61.5809 45.7678C61.1205 45.61 60.6876 45.3726 60.2521 45.1663L58.3353 44.2789C57.9247 44.0902 57.5057 43.8654 57.0543 43.7658C56.7502 43.4415 56.451 43.1142 56.1535 42.7852C55.6993 42.4717 55.4297 42.0141 54.8176 41.9076C53.4234 41.5468 52.1281 41.272 50.7029 40.9902C50.7942 40.407 50.9094 39.8217 50.8787 39.2311C50.8388 38.6631 50.7885 38.0875 50.7029 37.5235C51.3726 37.3807 52.0682 37.2122 52.708 36.9863C53.5471 36.8362 54.4075 36.5354 55.2625 36.5088ZM55.8688 38.7206L55.8479 38.7787C55.4503 39.8649 54.8259 40.688 54.8176 41.9076C55.4297 42.0141 55.6993 42.4717 56.1535 42.7852C56.451 43.1142 56.7502 43.4415 57.0543 43.7658C57.5057 43.8654 57.9247 44.0902 58.3353 44.2789L60.2521 45.1663C60.6876 45.3726 61.1205 45.61 61.5809 45.7678C61.4672 44.9327 61.372 44.1078 61.4129 43.2654C60.6021 42.1681 58.1885 40.145 57.0543 39.4128C56.7417 39.1183 56.2719 38.9016 55.8688 38.7206ZM50.8787 39.2311C50.9094 39.8217 50.7942 40.407 50.7029 40.9902C52.1281 41.272 53.4234 41.5468 54.8176 41.9076C54.8259 40.688 55.4503 39.8649 55.8479 38.7787L55.8688 38.7206C55.5997 38.5547 55.3389 38.4006 55.0309 38.2952C53.6412 38.5681 52.256 38.9101 50.8787 39.2311Z" fill="#191223"/>
<path d="M55.8688 38.7205C56.2719 38.9015 56.7417 39.1182 57.0544 39.4127C56.3569 40.5114 56.1448 41.5412 56.1536 42.7851C55.6993 42.4716 55.4297 42.014 54.8176 41.9075C54.8259 40.6879 55.4503 39.8648 55.8479 38.7786L55.8688 38.7205Z" fill="#FB8303"/>
<path d="M40.0537 32.2711C43.1866 31.3082 46.5826 32.1969 48.7961 34.3139C48.9364 34.4283 49.0767 34.5426 49.2193 34.6548C49.248 34.8851 49.9868 36.0001 50.1773 36.2132C50.5172 36.3337 50.7725 37.0482 50.64 37.3371L50.7031 37.5234C50.7888 38.0874 50.8391 38.663 50.8789 39.231C50.9096 39.8216 50.7944 40.4069 50.7031 40.9901C50.573 41.4123 50.181 42.3416 50.1773 42.7129C49.7791 43.0229 48.9314 44.3708 48.4279 44.9323L47.4545 45.7677C47.2443 45.8853 47.079 45.9921 46.9288 46.1721C46.7267 46.266 46.5607 46.3949 46.4002 46.5367C46.025 46.7444 45.6205 46.9246 45.3308 47.2277C45.0177 47.2393 43.631 47.9985 43.1768 48.1573C42.733 48.2307 42.2823 48.1494 41.8505 48.061C41.1365 47.761 40.4565 47.3469 39.7187 47.1003C39.2439 46.8131 38.71 46.3699 38.1862 46.1721C37.9569 45.9814 37.7038 45.8128 37.4567 45.6404C37.1936 45.3723 36.9472 45.1352 36.6149 44.9323C36.0099 44.0087 35.5744 43.4576 34.9872 42.4634C34.7714 41.9664 34.5221 41.5358 34.5242 40.9901C34.3639 40.4937 34.2649 40.0211 34.2347 39.5055L34.231 39.4355L34.1643 39.4128C34.2986 39.2937 34.4545 37.9752 34.5242 37.6958C34.6182 37.1713 34.8113 36.6804 35.0947 36.2132C35.1729 36.1154 36.1512 34.6829 36.1598 34.6548C37.1931 33.4941 38.5483 32.841 40.0537 32.2711Z" fill="#452D89"/>
<path d="M42.4282 36.7378C42.4966 35.9339 42.5846 35.1028 42.7757 34.314C42.9033 35.0534 43.0521 35.9947 43.0056 36.7378C43.1588 36.7995 43.3285 36.8105 43.4829 36.8675C46.0317 37.8067 45.5319 41.7835 42.9626 41.9076C39.7099 42.0603 39.1208 37.7051 41.799 36.8883C41.9879 36.8307 42.2785 36.8612 42.4282 36.7378Z" fill="#191223"/>
<defs>
<linearGradient id="paint0_linear_66_9027" x1="49.7993" y1="29.4463" x2="57.963" y2="30.2093" gradientUnits="userSpaceOnUse">
<stop stop-color="#252435"/>
<stop offset="1" stop-color="#4B3E44"/>
</linearGradient>
</defs>
</svg>
